<svg xmlns="http://www.w3.org/2000/svg" xmlns:xlink="http://www.w3.org/1999/xlink" width="200.98887" height="125.75645" viewBox="0 0 200.98887 125.75645"><defs><filter id="luminosity-noclip" x="169.23582" y="-8215.98175" width="27.3906" height="32766" filterUnits="userSpaceOnUse" color-interpolation-filters="sRGB"><feFlood flood-color="#fff" result="bg"/><feBlend in="SourceGraphic" in2="bg"/></filter><mask id="mask" x="169.23582" y="-8215.98175" width="27.3906" height="32766" maskUnits="userSpaceOnUse"><g style="filter:url(#luminosity-noclip)"/></mask><linearGradient id="linear-gradient" x1="336.99384" y1="66.19271" x2="358.41373" y2="79.16532" gradientTransform="translate(-169.1668)" gradientUnits="userSpaceOnUse"><stop offset="0" stop-color="#fff"/><stop offset="0.04713" stop-color="#e5e5e5"/><stop offset="0.15148" stop-color="#b0b0b0"/><stop offset="0.26012" stop-color="#818181"/><stop offset="0.37073" stop-color="#595959"/><stop offset="0.48387" stop-color="#393939"/><stop offset="0.60034" stop-color="#202020"/><stop offset="0.72146" stop-color="#0e0e0e"/><stop offset="0.85028" stop-color="#030303"/><stop offset="1"/></linearGradient><filter id="luminosity-noclip-2" x="107.09022" y="-8215.98175" width="27.3906" height="32766" filterUnits="userSpaceOnUse" color-interpolation-filters="sRGB"><feFlood flood-color="#fff" result="bg"/><feBlend in="SourceGraphic" in2="bg"/></filter><mask id="mask-2" x="107.09022" y="-8215.98175" width="27.3906" height="32766" maskUnits="userSpaceOnUse"><g style="filter:url(#luminosity-noclip-2)"/></mask><linearGradient id="linear-gradient-2" x1="274.84826" y1="102.07247" x2="296.26815" y2="115.04508" xlink:href="#linear-gradient"/><filter id="luminosity-noclip-3" x="4.36252" y="-8215.98175" width="27.3906" height="32766" filterUnits="userSpaceOnUse" color-interpolation-filters="sRGB"><feFlood flood-color="#fff" result="bg"/><feBlend in="SourceGraphic" in2="bg"/></filter><mask id="mask-3" x="4.36252" y="-8215.98175" width="27.3906" height="32766" maskUnits="userSpaceOnUse"><g style="filter:url(#luminosity-noclip-3)"/></mask><linearGradient id="linear-gradient-3" x1="112.84073" y1="66.19271" x2="134.26062" y2="79.16532" gradientTransform="matrix(-1, 0, 0, 1, 146.00263, 0)" xlink:href="#linear-gradient"/><filter id="luminosity-noclip-4" x="66.50812" y="-8215.98175" width="27.3906" height="32766" filterUnits="userSpaceOnUse" color-interpolation-filters="sRGB"><feFlood flood-color="#fff" result="bg"/><feBlend in="SourceGraphic" in2="bg"/></filter><mask id="mask-4" x="66.50812" y="-8215.98175" width="27.3906" height="32766" maskUnits="userSpaceOnUse"><g style="filter:url(#luminosity-noclip-4)"/></mask><linearGradient id="linear-gradient-4" x1="50.69515" y1="102.07247" x2="72.11505" y2="115.04508" gradientTransform="matrix(-1, 0, 0, 1, 146.00263, 0)" xlink:href="#linear-gradient"/><linearGradient id="linear-gradient-5" x1="383.07578" y1="66.83205" x2="347.13462" y2="66.83205" gradientTransform="matrix(-1, 0, 0, 1, 467.36983, 0)" gradientUnits="userSpaceOnUse"><stop offset="0" stop-color="#2a2a5d"/><stop offset="1" stop-color="#6cbded"/></linearGradient><linearGradient id="linear-gradient-6" x1="374.05359" y1="57.8421" x2="273.6408" y2="57.8421" xlink:href="#linear-gradient-5"/><filter id="luminosity-noclip-5" x="169.23582" y="65.79795" width="27.3906" height="19.0846" filterUnits="userSpaceOnUse" color-interpolation-filters="sRGB"><feFlood flood-color="#fff" result="bg"/><feBlend in="SourceGraphic" in2="bg"/></filter><mask id="mask-5" x="169.23582" y="65.79795" width="27.3906" height="19.0846" maskUnits="userSpaceOnUse"><g style="mask:url(#mask);filter:url(#luminosity-noclip-5)"><polygon points="169.236 70.298 169.236 73.569 188.832 84.883 196.626 80.382 196.626 77.112 177.03 65.798 169.236 70.298" style="mix-blend-mode:multiply;fill:url(#linear-gradient)"/></g></mask><linearGradient id="linear-gradient-7" x1="336.99384" y1="66.19271" x2="358.41373" y2="79.16532" gradientTransform="translate(-169.1668)" gradientUnits="userSpaceOnUse"><stop offset="0" stop-color="#6cbded"/><stop offset="0.01607" stop-color="#68bfee" stop-opacity="0.96385"/><stop offset="0.12385" stop-color="#50cef2" stop-opacity="0.74048"/><stop offset="0.23596" stop-color="#3bdbf5" stop-opacity="0.54248"/><stop offset="0.35019" stop-color="#29e6f8" stop-opacity="0.37545"/><stop offset="0.46705" stop-color="#1aeffb" stop-opacity="0.23927"/><stop offset="0.5873" stop-color="#0ef6fd" stop-opacity="0.13382"/><stop offset="0.71236" stop-color="#06fbfe" stop-opacity="0.05892"/><stop offset="0.84539" stop-color="#02feff" stop-opacity="0.01437"/><stop offset="1" stop-color="aqua" stop-opacity="0"/></linearGradient><filter id="luminosity-noclip-6" x="107.09022" y="101.67765" width="27.3906" height="19.0847" filterUnits="userSpaceOnUse" color-interpolation-filters="sRGB"><feFlood flood-color="#fff" result="bg"/><feBlend in="SourceGraphic" in2="bg"/></filter><mask id="mask-6" x="107.09022" y="101.67765" width="27.3906" height="19.0847" maskUnits="userSpaceOnUse"><g style="mask:url(#mask-2);filter:url(#luminosity-noclip-6)"><polygon points="107.09 106.178 107.09 109.448 126.686 120.762 134.481 116.262 134.481 112.992 114.885 101.678 107.09 106.178" style="mix-blend-mode:multiply;fill:url(#linear-gradient-2)"/></g></mask><linearGradient id="linear-gradient-8" x1="274.84826" y1="102.07247" x2="296.26815" y2="115.04508" xlink:href="#linear-gradient-7"/><filter id="luminosity-noclip-7" x="4.36252" y="65.79795" width="27.3906" height="19.0846" filterUnits="userSpaceOnUse" color-interpolation-filters="sRGB"><feFlood flood-color="#fff" result="bg"/><feBlend in="SourceGraphic" in2="bg"/></filter><mask id="mask-7" x="4.36252" y="65.79795" width="27.3906" height="19.0846" maskUnits="userSpaceOnUse"><g style="mask:url(#mask-3);filter:url(#luminosity-noclip-7)"><polygon points="31.753 70.298 31.753 73.569 12.157 84.883 4.363 80.382 4.363 77.112 23.959 65.798 31.753 70.298" style="mix-blend-mode:multiply;fill:url(#linear-gradient-3)"/></g></mask><linearGradient id="linear-gradient-9" x1="112.84073" y1="66.19271" x2="134.26062" y2="79.16532" gradientTransform="matrix(-1, 0, 0, 1, 146.00263, 0)" xlink:href="#linear-gradient-7"/><filter id="luminosity-noclip-8" x="66.50812" y="101.67765" width="27.3906" height="19.0847" filterUnits="userSpaceOnUse" color-interpolation-filters="sRGB"><feFlood flood-color="#fff" result="bg"/><feBlend in="SourceGraphic" in2="bg"/></filter><mask id="mask-8" x="66.50812" y="101.67765" width="27.3906" height="19.0847" maskUnits="userSpaceOnUse"><g style="mask:url(#mask-4);filter:url(#luminosity-noclip-8)"><polygon points="93.899 106.178 93.899 109.448 74.303 120.762 66.508 116.262 66.508 112.992 86.104 101.678 93.899 106.178" style="mix-blend-mode:multiply;fill:url(#linear-gradient-4)"/></g></mask><linearGradient id="linear-gradient-10" x1="50.69515" y1="102.07247" x2="72.11505" y2="115.04508" gradientTransform="matrix(-1, 0, 0, 1, 146.00263, 0)" xlink:href="#linear-gradient-7"/></defs><title>Asset 2</title><g style="isolation:isolate"><g id="Layer_2" data-name="Layer 2"><g id="_ÎÓÈ_1" data-name="—ÎÓÈ_1"><path d="M100.49432,125.75645a7.89824,7.89824,0,0,1-3.9511-1.0553l-93.8428-54.18a5.40083,5.40083,0,0,1,0-9.3545l93.8429-54.1802a7.92394,7.92394,0,0,1,7.9024,0l93.8428,54.1802a5.401,5.401,0,0,1,.00009,9.3545l-93.8429,54.18A7.89879,7.89879,0,0,1,100.49432,125.75645Zm0-119.1326a7.20648,7.20648,0,0,0-3.6044.9629L3.04682,61.76695a4.70758,4.70758,0,0,0,0,8.1539l93.8431,54.18a7.22725,7.22725,0,0,0,7.2091,0l93.8431-54.18a4.70768,4.70768,0,0,0,0-8.1539l-93.8429-54.1802A7.20829,7.20829,0,0,0,100.49432,6.62385Z" style="fill:#6cbded;opacity:0.2;mix-blend-mode:multiply"/><path d="M92.38412,22.78665l5.2393-3.0249a5.73932,5.73932,0,0,1,5.7395,0l66.73,38.5266h12.4169v8.5439a2.35946,2.35946,0,0,1-1.1908,2.0627l-77.9553,45.0074a5.73913,5.73913,0,0,1-5.7394,0l-77.9561-45.0079a2.35952,2.35952,0,0,1-1.1909-2.0626v-8.544Z" style="fill:url(#linear-gradient-5)"/><path d="M97.62512,104.91245,19.669,59.90445a2.38175,2.38175,0,0,1,0-4.1252l77.9553-45.0075a5.7398,5.7398,0,0,1,5.7395,0l77.9561,45.008a2.38175,2.38175,0,0,1,0,4.1252l-77.9553,45.0075A5.7398,5.7398,0,0,1,97.62512,104.91245Z" style="fill:url(#linear-gradient-6)"/><g style="mask:url(#mask-5)"><polygon points="169.236 70.298 169.236 73.569 188.832 84.883 196.626 80.382 196.626 77.112 177.03 65.798 169.236 70.298" style="fill:url(#linear-gradient-7)"/></g><g style="mask:url(#mask-6)"><polygon points="107.09 106.178 107.09 109.448 126.686 120.762 134.481 116.262 134.481 112.992 114.885 101.678 107.09 106.178" style="fill:url(#linear-gradient-8)"/></g><g style="mask:url(#mask-7)"><polygon points="31.753 70.298 31.753 73.569 12.157 84.883 4.363 80.382 4.363 77.112 23.959 65.798 31.753 70.298" style="fill:url(#linear-gradient-9)"/></g><g style="mask:url(#mask-8)"><polygon points="93.899 106.178 93.899 109.448 74.303 120.762 66.508 116.262 66.508 112.992 86.104 101.678 93.899 106.178" style="fill:url(#linear-gradient-10)"/></g><path d="M96.71652,118.47335,2.87362,64.29315a5.05415,5.05415,0,0,1,0-8.7541l93.8429-54.1802a7.55556,7.55556,0,0,1,7.5559,0l93.8429,54.1802a5.05422,5.05422,0,0,1,0,8.7541l-93.8429,54.1802A7.55556,7.55556,0,0,1,96.71652,118.47335Z" style="fill:none;stroke:#6cbded;stroke-miterlimit:10;stroke-width:0.692998px"/></g></g></g></svg>