<svg xmlns="http://www.w3.org/2000/svg" xmlns:xlink="http://www.w3.org/1999/xlink" width="550.67203" height="398.94114" viewBox="0 0 550.67203 398.94114"><defs><linearGradient id="Gradiente_sem_nome_4" x1="313.38413" y1="99.73904" x2="316.01115" y2="99.73904" gradientTransform="translate(365.48812 -226.45543) rotate(81.26495)" gradientUnits="userSpaceOnUse"><stop offset="0" stop-color="#FFC250"/><stop offset="0.01607" stop-color="#FFC250" stop-opacity="0.96385"/><stop offset="0.12385" stop-color="#FFC250" stop-opacity="0.74048"/><stop offset="0.23596" stop-color="#FFC250" stop-opacity="0.54248"/><stop offset="0.35019" stop-color="#FFC250" stop-opacity="0.37545"/><stop offset="0.46705" stop-color="#FFC250" stop-opacity="0.23927"/><stop offset="0.5873" stop-color="#FFC250" stop-opacity="0.13382"/><stop offset="0.71236" stop-color="#FFC250" stop-opacity="0.05892"/><stop offset="0.84539" stop-color="#FFC250" stop-opacity="0.01437"/><stop offset="1" stop-color="#FFC250" stop-opacity="0"/></linearGradient><linearGradient id="Gradiente_sem_nome_4-2" x1="374.54001" y1="315.44586" x2="377.16704" y2="315.44586" gradientTransform="translate(630.56143 -103.95354) rotate(81.26495)" xlink:href="#Gradiente_sem_nome_4"/><linearGradient id="Gradiente_sem_nome_4-3" x1="514.72284" y1="9.472" x2="517.34986" y2="9.472" gradientTransform="translate(447.02999 -502.01736) rotate(81.26491)" xlink:href="#Gradiente_sem_nome_4"/><linearGradient id="Gradiente_sem_nome_4-4" x1="253.31841" y1="59.56824" x2="255.94544" y2="59.56824" gradientTransform="translate(274.83942 -201.15661) rotate(81.26495)" xlink:href="#Gradiente_sem_nome_4"/><linearGradient id="Gradiente_sem_nome_4-5" x1="509.11211" y1="66.39824" x2="511.73914" y2="66.39824" gradientTransform="translate(498.53765 -448.19064) rotate(81.26495)" xlink:href="#Gradiente_sem_nome_4"/><linearGradient id="Gradiente_sem_nome_4-6" x1="284.54594" y1="3.78107" x2="287.17295" y2="3.78107" gradientTransform="translate(246.18448 -279.33694) rotate(81.26495)" xlink:href="#Gradiente_sem_nome_4"/><linearGradient id="Gradiente_sem_nome_4-7" x1="108.35734" y1="123.75117" x2="110.98435" y2="123.75117" gradientTransform="translate(215.33142 -3.44112) rotate(81.26495)" xlink:href="#Gradiente_sem_nome_4"/><linearGradient id="Gradiente_sem_nome_4-8" x1="140.48674" y1="29.59447" x2="143.11375" y2="29.59447" gradientTransform="translate(149.5169 -115.05543) rotate(81.26495)" xlink:href="#Gradiente_sem_nome_4"/><linearGradient id="Gradiente_sem_nome_4-9" x1="180.00471" y1="133.56625" x2="182.63168" y2="133.56625" gradientTransform="translate(285.79813 -65.93356) rotate(81.26463)" xlink:href="#Gradiente_sem_nome_4"/><linearGradient id="Gradiente_sem_nome_4-10" x1="171.45651" y1="387.28867" x2="174.08355" y2="387.28867" gradientTransform="translate(529.3288 157.7068) rotate(81.26495)" xlink:href="#Gradiente_sem_nome_4"/><linearGradient id="Gradiente_sem_nome_4-11" x1="24.27142" y1="38.30214" x2="26.89845" y2="38.30214" gradientTransform="translate(59.55852 7.19849) rotate(81.26711)" xlink:href="#Gradiente_sem_nome_4"/><linearGradient id="Gradiente_sem_nome_4-12" x1="118.33609" y1="116.68156" x2="123.2712" y2="116.68156" gradientTransform="translate(217.78512 -20.44138) rotate(81.26461)" xlink:href="#Gradiente_sem_nome_4"/><linearGradient id="Gradiente_sem_nome_4-13" x1="195.17359" y1="396.47362" x2="200.10862" y2="396.47362" gradientTransform="translate(559.50401 140.91823) rotate(81.26558)" xlink:href="#Gradiente_sem_nome_4"/><linearGradient id="Gradiente_sem_nome_4-14" x1="0" y1="148.92526" x2="4.9351" y2="148.92526" gradientTransform="translate(149.29108 123.87172) rotate(81.26573)" xlink:href="#Gradiente_sem_nome_4"/><linearGradient id="Gradiente_sem_nome_4-15" x1="49.86837" y1="38.30216" x2="54.8034" y2="38.30216" gradientTransform="translate(82.24526 -19.24375) rotate(81.26443)" xlink:href="#Gradiente_sem_nome_4"/><linearGradient id="Gradiente_sem_nome_4-16" x1="23.11737" y1="2.46756" x2="28.0525" y2="2.46756" gradientTransform="translate(24.13878 -23.19535) rotate(81.26576)" xlink:href="#Gradiente_sem_nome_4"/><linearGradient id="Gradiente_sem_nome_4-17" x1="263.01329" y1="50.74956" x2="267.94839" y2="50.74956" gradientTransform="translate(275.32272 -219.35919) rotate(81.2646)" xlink:href="#Gradiente_sem_nome_4"/><linearGradient id="Gradiente_sem_nome_4-18" x1="279.99588" y1="64.71265" x2="284.93092" y2="64.71265" gradientTransform="translate(303.5264 -224.3023) rotate(81.26443)" xlink:href="#Gradiente_sem_nome_4"/><linearGradient id="Gradiente_sem_nome_4-19" x1="329.01529" y1="49.39816" x2="333.9504" y2="49.39816" gradientTransform="translate(329.9719 -285.74177) rotate(81.26574)" xlink:href="#Gradiente_sem_nome_4"/><linearGradient id="Gradiente_sem_nome_4-20" x1="349.47444" y1="52.26521" x2="358.84806" y2="52.26521" gradientTransform="translate(352.04029 -305.72547) rotate(81.26574)" xlink:href="#Gradiente_sem_nome_4"/><linearGradient id="Gradiente_sem_nome_4-21" x1="133.01022" y1="61.22037" x2="142.38385" y2="61.22037" gradientTransform="translate(177.29637 -84.17668) rotate(81.26513)" xlink:href="#Gradiente_sem_nome_4"/><linearGradient id="Gradiente_sem_nome_4-22" x1="541.29833" y1="9.47199" x2="550.67203" y2="9.47199" gradientTransform="translate(472.43359 -531.61923) rotate(81.26522)" xlink:href="#Gradiente_sem_nome_4"/><linearGradient id="Gradiente_sem_nome_4-23" x1="234.9208" y1="83.31485" x2="236.15711" y2="83.31485" gradientTransform="translate(282.10283 -162.14752) rotate(81.26159)" xlink:href="#Gradiente_sem_nome_4"/><linearGradient id="Gradiente_sem_nome_4-24" x1="285.24129" y1="357.60304" x2="286.47759" y2="357.60304" gradientTransform="translate(595.90969 20.75828) rotate(81.26617)" xlink:href="#Gradiente_sem_nome_4"/><linearGradient id="Gradiente_sem_nome_4-25" x1="66.9275" y1="138.57044" x2="68.16379" y2="138.57044" gradientTransform="translate(194.25282 50.76689) rotate(81.26617)" xlink:href="#Gradiente_sem_nome_4"/><linearGradient id="Gradiente_sem_nome_4-26" x1="94.1181" y1="162.09841" x2="95.35449" y2="162.09841" gradientTransform="translate(240.57135 43.84869) rotate(81.26688)" xlink:href="#Gradiente_sem_nome_4"/><linearGradient id="Gradiente_sem_nome_4-27" x1="165.0116" y1="168.43077" x2="166.24789" y2="168.43077" gradientTransform="translate(306.94234 -20.86496) rotate(81.26159)" xlink:href="#Gradiente_sem_nome_4"/><linearGradient id="Gradiente_sem_nome_4-28" x1="137.1262" y1="152.74986" x2="138.36259" y2="152.74986" gradientTransform="translate(267.80929 -6.58991) rotate(81.26688)" xlink:href="#Gradiente_sem_nome_4"/><linearGradient id="Gradiente_sem_nome_4-29" x1="172.15187" y1="132.25291" x2="173.38819" y2="132.25291" gradientTransform="translate(277.25521 -58.59561) rotate(81.26617)" xlink:href="#Gradiente_sem_nome_4"/><linearGradient id="Gradiente_sem_nome_4-30" x1="221.339" y1="149.19844" x2="222.57531" y2="149.19844" gradientTransform="translate(335.72243 -92.84004) rotate(81.26613)" xlink:href="#Gradiente_sem_nome_4"/><linearGradient id="Gradiente_sem_nome_4-31" x1="278.39574" y1="133.56626" x2="281.02244" y2="133.56626" gradientTransform="matrix(1, 0, 0, 1, 0, 0)" xlink:href="#Gradiente_sem_nome_4"/><linearGradient id="Gradiente_sem_nome_4-32" x1="198.82344" y1="149.19841" x2="201.45004" y2="149.19841" gradientTransform="matrix(1, 0, 0, 1, 0, 0)" xlink:href="#Gradiente_sem_nome_4"/><linearGradient id="Gradiente_sem_nome_4-33" x1="244.74625" y1="95.70401" x2="247.37294" y2="95.70401" gradientTransform="matrix(1, 0, 0, 1, 0, 0)" xlink:href="#Gradiente_sem_nome_4"/><linearGradient id="Gradiente_sem_nome_4-34" x1="319.76574" y1="90.96051" x2="322.39234" y2="90.96051" gradientTransform="matrix(1, 0, 0, 1, 0, 0)" xlink:href="#Gradiente_sem_nome_4"/><linearGradient id="Gradiente_sem_nome_4-35" x1="398.34994" y1="101.05236" x2="400.97664" y2="101.05236" gradientTransform="matrix(1, 0, 0, 1, 0, 0)" xlink:href="#Gradiente_sem_nome_4"/><linearGradient id="Gradiente_sem_nome_4-36" x1="81.83275" y1="52.26521" x2="84.45935" y2="52.26521" gradientTransform="matrix(1, 0, 0, 1, 0, 0)" xlink:href="#Gradiente_sem_nome_4"/><linearGradient id="Gradiente_sem_nome_4-37" x1="16.61585" y1="298.08171" x2="19.24255" y2="298.08171" gradientTransform="matrix(1, 0, 0, 1, 0, 0)" xlink:href="#Gradiente_sem_nome_4"/><linearGradient id="Gradiente_sem_nome_4-38" x1="120.80364" y1="35.63746" x2="123.43034" y2="35.63746" gradientTransform="matrix(1, 0, 0, 1, 0, 0)" xlink:href="#Gradiente_sem_nome_4"/></defs><title>Asset 1</title><g id="Layer_2" data-name="Layer 2"><g id="_ÎÓÈ_1" data-name="—ÎÓÈ_1"><circle cx="314.69767" cy="99.73903" r="1.31333" transform="translate(168.32377 395.63965) rotate(-81.26495)" style="opacity:0.30000000000000004;fill:url(#Gradiente_sem_nome_4)"/><circle cx="375.85354" cy="315.44588" r="1.31333" transform="translate(6.98727 639.03461) rotate(-81.26495)" style="opacity:0.30000000000000004;fill:url(#Gradiente_sem_nome_4-2)"/><circle cx="516.03636" cy="9.472" r="1.31333" transform="translate(428.30572 518.08441) rotate(-81.26491)" style="opacity:0.30000000000000004;fill:url(#Gradiente_sem_nome_4-3)"/><circle cx="254.63192" cy="59.56823" r="1.31333" transform="translate(157.0848 302.20035) rotate(-81.26495)" style="opacity:0.30000000000000004;fill:url(#Gradiente_sem_nome_4-4)"/><circle cx="510.42561" cy="66.39823" r="1.31333" transform="matrix(0.15187, -0.9884, 0.9884, 0.15187, 367.28148, 560.8199)" style="opacity:0.30000000000000004;fill:url(#Gradiente_sem_nome_4-5)"/><circle cx="285.85944" cy="3.78108" r="1.31333" transform="translate(238.71003 285.75067) rotate(-81.26495)" style="opacity:0.30000000000000004;fill:url(#Gradiente_sem_nome_4-6)"/><circle cx="109.67082" cy="123.75118" r="1.31333" transform="matrix(0.15187, -0.9884, 0.9884, 0.15187, -29.30021, 213.35641)" style="opacity:0.30000000000000004;fill:url(#Gradiente_sem_nome_4-7)"/><circle cx="141.80024" cy="29.59448" r="1.31333" transform="translate(91.01446 165.25563) rotate(-81.26495)" style="opacity:0.30000000000000004;fill:url(#Gradiente_sem_nome_4-8)"/><circle cx="181.31819" cy="133.56623" r="1.31333" transform="translate(21.76432 292.49636) rotate(-81.26463)" style="opacity:0.30000000000000004;fill:url(#Gradiente_sem_nome_4-9)"/><circle cx="172.77002" cy="387.28868" r="1.31333" transform="translate(-236.26437 499.23898) rotate(-81.26495)" style="opacity:0.30000000000000004;fill:url(#Gradiente_sem_nome_4-10)"/><circle cx="25.58492" cy="38.30216" r="1.31333" transform="translate(-16.15771 57.77512) rotate(-81.26711)" style="opacity:0.30000000000000004;fill:url(#Gradiente_sem_nome_4-11)"/><circle cx="120.80364" cy="116.68156" r="2.46722" transform="matrix(0.15187, -0.9884, 0.9884, 0.15187, -12.87104, 218.36333)" style="opacity:0.15;fill:url(#Gradiente_sem_nome_4-12)"/><circle cx="197.64109" cy="396.47361" r="2.46716" transform="translate(-224.24726 531.61627) rotate(-81.26558)" style="opacity:0.15;fill:url(#Gradiente_sem_nome_4-13)"/><circle cx="2.46755" cy="148.92528" r="2.46721" transform="translate(-145.10538 128.7496) rotate(-81.26573)" style="opacity:0.15;fill:url(#Gradiente_sem_nome_4-14)"/><circle cx="52.3359" cy="38.30216" r="2.46721" transform="translate(6.52957 84.21383) rotate(-81.26443)" style="opacity:0.15;fill:url(#Gradiente_sem_nome_4-15)"/><circle cx="25.58492" cy="2.46758" r="2.46721" transform="translate(19.26085 27.3811) rotate(-81.26576)" style="opacity:0.15;fill:url(#Gradiente_sem_nome_4-16)"/><circle cx="265.48084" cy="50.74956" r="2.46722" transform="translate(175.00097 305.44347) rotate(-81.2646)" style="opacity:0.15;fill:url(#Gradiente_sem_nome_4-17)"/><circle cx="282.46339" cy="64.71266" r="2.46721" transform="translate(175.60245 334.07121) rotate(-81.26443)" style="opacity:0.15;fill:url(#Gradiente_sem_nome_4-18)"/><circle cx="331.48287" cy="49.39818" r="2.46721" transform="translate(232.32126 369.53573) rotate(-81.26574)" style="opacity:0.15;fill:url(#Gradiente_sem_nome_4-19)"/><circle cx="354.16124" cy="52.26523" r="4.68619" transform="translate(248.72205 394.38278) rotate(-81.26574)" style="opacity:0.15;fill:url(#Gradiente_sem_nome_4-20)"/><circle cx="137.69704" cy="61.22038" r="4.68614" transform="translate(56.27571 188.02329) rotate(-81.26513)" style="opacity:0.15;fill:url(#Gradiente_sem_nome_4-21)"/><circle cx="545.98518" cy="9.47199" r="4.68618" transform="translate(453.70933 547.68636) rotate(-81.26522)" style="opacity:0.15;fill:url(#Gradiente_sem_nome_4-22)"/><circle cx="235.53897" cy="83.31486" r="0.61807" transform="translate(117.40731 303.46227) rotate(-81.26159)" style="opacity:0.4;fill:url(#Gradiente_sem_nome_4-23)"/><circle cx="285.85944" cy="357.60303" r="0.61807" transform="translate(-111.00313 585.84774) rotate(-81.26617)" style="opacity:0.4;fill:url(#Gradiente_sem_nome_4-24)"/><circle cx="67.54562" cy="138.57043" r="0.61807" transform="translate(-79.67443 184.29168) rotate(-81.26617)" style="opacity:0.4;fill:url(#Gradiente_sem_nome_4-25)"/><circle cx="94.7363" cy="162.09841" r="0.61812" transform="translate(-79.86681 231.12459) rotate(-81.26688)" style="opacity:0.4;fill:url(#Gradiente_sem_nome_4-26)"/><circle cx="165.62972" cy="168.43076" r="0.61807" transform="translate(-26.00898 306.54931) rotate(-81.26159)" style="opacity:0.4;fill:url(#Gradiente_sem_nome_4-27)"/><circle cx="137.74439" cy="152.74988" r="0.61807" transform="translate(-34.14859 265.70494) rotate(-81.26688)" style="opacity:0.4;fill:url(#Gradiente_sem_nome_4-28)"/><circle cx="172.77002" cy="132.25291" r="0.61812" transform="translate(15.8165 282.93769) rotate(-81.26617)" style="opacity:0.4;fill:url(#Gradiente_sem_nome_4-29)"/><circle cx="221.95717" cy="149.19843" r="0.61807" transform="translate(40.78569 345.9268) rotate(-81.26613)" style="opacity:0.4;fill:url(#Gradiente_sem_nome_4-30)"/><circle cx="279.70912" cy="133.56626" r="1.31332" style="opacity:0.2;fill:url(#Gradiente_sem_nome_4-31)"/><circle cx="200.13674" cy="149.19843" r="1.31332" style="opacity:0.2;fill:url(#Gradiente_sem_nome_4-32)"/><circle cx="246.05957" cy="95.70403" r="1.31335" style="opacity:0.2;fill:url(#Gradiente_sem_nome_4-33)"/><circle cx="321.07904" cy="90.96048" r="1.31332" style="opacity:0.2;fill:url(#Gradiente_sem_nome_4-34)"/><circle cx="399.66331" cy="101.05236" r="1.31332" style="opacity:0.2;fill:url(#Gradiente_sem_nome_4-35)"/><circle cx="83.14605" cy="52.26523" r="1.31333" style="opacity:0.30000000000000004;fill:url(#Gradiente_sem_nome_4-36)"/><circle cx="17.92922" cy="298.08173" r="1.31335" style="opacity:0.30000000000000004;fill:url(#Gradiente_sem_nome_4-37)"/><circle cx="122.11702" cy="35.63746" r="1.31332" style="opacity:0.30000000000000004;fill:url(#Gradiente_sem_nome_4-38)"/></g></g></svg>