<svg xmlns="http://www.w3.org/2000/svg" width="31.55125" height="49.49683" viewBox="0 0 31.55125 49.49683"><title>Asset 2</title><g id="Layer_2" data-name="Layer 2"><g id="_ÎÓÈ_1" data-name="—ÎÓÈ_1"><path d="M29.8701,13.41391,6.31646.16561a.926.926,0,0,0-.839-.10842.78051.78051,0,0,0-.0846.02823A.78812.78812,0,0,0,5.30824.1136a.78066.78066,0,0,0-.0846.02818A.77435.77435,0,0,0,5.139.17.77248.77248,0,0,0,5.05445.1982a.77514.77514,0,0,0-.08469.02823A.79045.79045,0,0,0,4.885.25466a.78.78,0,0,0-.0844.02818A.785.785,0,0,0,4.71593.311a.777.777,0,0,0-.0846.02823.7729.7729,0,0,0-.08455.02818A.78536.78536,0,0,0,4.4621.39562a.7876.7876,0,0,0-.0846.02823A.77369.77369,0,0,0,4.2929.452a.774.774,0,0,0-.0846.02823.77013.77013,0,0,0-.08464.02818.77538.77538,0,0,0-.08474.02828.78428.78428,0,0,0-.08446.02813.77782.77782,0,0,0-.08464.02823.77328.77328,0,0,0-.0846.02818.784.784,0,0,0-.0846.02823A.78812.78812,0,0,0,3.616.67768a.76985.76985,0,0,0-.0846.02818.78051.78051,0,0,0-.0846.02823.77794.77794,0,0,0-.08464.02818.77012.77012,0,0,0-.0846.02823.78333.78333,0,0,0-.08474.02823.77783.77783,0,0,0-.08445.02818A.77527.77527,0,0,0,3.02369.8751a.77744.77744,0,0,0-.0846.02823c-.54917.15084-.92677.90416-.92677,2.03537L1.91206,31.46251c0,1.59893.75269,3.34124,1.68115,3.89152L6.942,37.33875,12.33,40.532l15.40269,8.07033a.9257.9257,0,0,0,.839.10842,1255795.75384,1255795.75384,0,0,0,.16909-.05636c1.68527-.67671,2.71024-.648,2.71024-2.82515l.10027-28.52381C31.55125,15.7065,30.79856,13.96424,29.8701,13.41391Z" style="fill:#6baae6"/><path d="M27.83294,14.28829,3.69348,1.03994C2.765.48966,2.01232,1.33977,2.01232,2.9387L1.91206,31.46251c0,1.59893.75269,3.34124,1.68115,3.89152L6.942,37.33875l4.39366,2.60395,16.397,8.65964c.92846.55028,1.68115-.29984,1.68115-1.89876l.10027-28.52381C29.51409,16.58083,28.76141,14.83852,27.83294,14.28829Z" style="fill:#406cad"/><g id="_Group_" data-name="&lt;Group&gt;"><path id="_Compound_Path_" data-name="&lt;Compound Path&gt;" d="M5.93086,15.98634l.94088.55906.94089.55906.94088.55906.94089.55906.94088.55906.94089.55906.94088.55906.00559-1.13954.00559-1.13952.00559-1.13954.00559-1.13952.00559-1.13954.00559-1.13952L12.5562,11.923l-.94088-.55906-.94089-.55906-.94088-.55906-.94089-.55906-.94088-.55906L6.9109,8.56866,5.97,8.0096,5.96443,9.14914l-.00559,1.13952-.00559,1.13954-.00559,1.13952L5.942,13.70728,5.93645,14.8468l-.00559,1.13954m.94647-.58049.94089.55906.94088.55906L9.7,17.083l.94088.55906.94089.55906.00559-1.13952.00559-1.13954.00559-1.13952.00559-1.13954.00559-1.13952-.94089-.55906L9.728,11.38538l-.94089-.55906-.94088-.55906L6.9053,9.7082l-.00559,1.13952-.00559,1.13954-.00559,1.13952-.00559,1.13954-.00559,1.13952" style="fill:#fff;fill-rule:evenodd"/><path id="_Compound_Path_2" data-name="&lt;Compound Path&gt;" d="M17.23265,20.416l.94088.55906.00559-1.13954.00559-1.13952.00559-1.13954.00559-1.13952.00559-1.13954-.94088-.55906-.94089-.55906-.94088-.55906-.00559,1.13954-.94089-.55906-.94088-.55906-.00559,1.13952.94088.55906.94089.55906-.00559,1.13954.94088.55906.94089.55906-.00559,1.13952L17.23265,20.416m-.92411-3.97767.94089.55906.00559-1.13952-.94089-.55906-.00559,1.13952" style="fill:#fff;fill-rule:evenodd"/><path id="_Compound_Path_3" data-name="&lt;Compound Path&gt;" d="M19.10323,23.81318l.94088.55906.94089.55907.94087.55905.94089.55906.94088.55906.94089.55906.94088.55906.00559-1.13954.00559-1.13952.00559-1.13954.00559-1.13952.00559-1.13954L25.723,20.8894l.00559-1.13954-.94088-.55906-.94089-.55906-.94088-.55906-.94089-.55906-.94087-.55905-.94089-.55907-.94088-.55906L19.1368,16.976l-.00559,1.13952L19.12561,19.255,19.12,20.39457l-.00559,1.13954-.00559,1.13952-.00559,1.13954m.94647-.58049.94089.55907.94087.55905.94089.55906.94088.55906.94089.55906.00559-1.13952.00559-1.13954.00559-1.13952.00559-1.13954.00559-1.13952-.94089-.55906-.94088-.55906-.94089-.55906-.94087-.55905-.94089-.55907-.00559,1.13952-.00559,1.13954-.00559,1.13952-.00559,1.13954-.00559,1.13952" style="fill:#fff;fill-rule:evenodd"/><polyline id="_Path_" data-name="&lt;Path&gt;" points="7.824 14.825 8.765 15.384 9.706 15.944 10.646 16.503 10.652 15.363 10.658 14.224 10.663 13.084 9.722 12.525 8.781 11.966 7.841 11.407 7.835 12.546 7.829 13.686 7.824 14.825" style="fill:#fff;fill-rule:evenodd"/><polyline id="_Path_2" data-name="&lt;Path&gt;" points="20.996 22.652 21.937 23.211 22.878 23.77 23.819 24.329 23.824 23.19 23.83 22.05 23.836 20.911 22.895 20.352 21.954 19.793 21.013 19.234 21.007 20.373 21.002 21.513 20.996 22.652" style="fill:#fff;fill-rule:evenodd"/><polyline id="_Path_3" data-name="&lt;Path&gt;" points="14.41 18.739 15.351 19.298 15.356 18.158 15.362 17.019 14.421 16.46 13.48 15.901 13.475 17.04 14.416 17.599 14.41 18.739" style="fill:#fff;fill-rule:evenodd"/><polyline id="_Path_4" data-name="&lt;Path&gt;" points="13.458 20.459 14.399 21.018 14.404 19.878 14.41 18.739 13.469 18.18 13.464 19.319 13.458 20.459" style="fill:#fff;fill-rule:evenodd"/><polyline id="_Path_5" data-name="&lt;Path&gt;" points="16.286 20.996 17.227 21.556 17.233 20.416 16.292 19.857" style="fill:#fff;fill-rule:evenodd"/><polyline id="_Path_6" data-name="&lt;Path&gt;" points="15.34 21.577 16.281 22.136 16.286 20.996 15.345 20.437" style="fill:#fff;fill-rule:evenodd"/><polyline id="_Path_7" data-name="&lt;Path&gt;" points="17.221 22.695 18.162 23.254 18.168 22.115 17.227 21.556" style="fill:#fff;fill-rule:evenodd"/><polyline id="_Path_8" data-name="&lt;Path&gt;" points="14.393 22.157 15.334 22.716 15.34 21.577 14.399 21.018" style="fill:#fff;fill-rule:evenodd"/><polyline id="_Path_9" data-name="&lt;Path&gt;" points="6.838 23.383 7.779 23.942 8.72 24.501 8.726 23.361 9.666 23.92 9.661 25.06 10.602 25.619 10.607 24.479 10.613 23.34 9.672 22.781 9.678 21.641 8.737 21.082 8.742 19.943 9.683 20.502 9.678 21.641 10.618 22.2 10.613 23.34 11.554 23.899 12.495 24.458 13.436 25.017 14.376 25.576 14.382 24.436 13.441 23.877 12.5 23.318 11.559 22.759 11.565 21.62 10.624 21.061 10.63 19.921 9.689 19.362 8.748 18.803 7.807 18.244 6.866 17.685 5.925 17.126 5.92 18.265 6.861 18.824 7.801 19.384 7.796 20.523 6.855 19.964 5.914 19.405 5.908 20.544 5.903 21.684 6.844 22.243 6.838 23.383" style="fill:#fff;fill-rule:evenodd"/><polyline id="_Path_10" data-name="&lt;Path&gt;" points="11.565 21.62 12.506 22.179 13.447 22.738 14.388 23.297 14.393 22.157 13.452 21.598 12.511 21.039 11.571 20.48 11.565 21.62" style="fill:#fff;fill-rule:evenodd"/><path id="_Compound_Path_4" data-name="&lt;Compound Path&gt;" d="M13.41317,29.57509l.94088.55906.00559-1.13954.00559-1.13952.94089.55906.94088.55906.00559-1.13954.94089.55906-.00559,1.13954-.00559,1.13952.94088.55906.00559-1.13952.00559-1.13954.94089.55906.94088.55906-.00559,1.13954L20.00494,32.349l.94089.55907.00559-1.13952L20.957,30.629l.00559-1.13952.00559-1.13954.00559-1.13952.00559-1.13954-.94089-.55907-.00559,1.13954-.94088-.55906.00559-1.13954-.94089-.55906-.00559,1.13954-.94088-.55906.00559-1.13954-.94089-.55906-.00559,1.13954-.00559,1.13952.94089.55906-.00559,1.13954-.94089-.55906.00559-1.13954-.94088-.55906-.00559,1.13954-.94089-.55906-.00559,1.13952L13.43,26.15648l-.94089-.55906-.94088-.55906-.00559,1.13954.94088.55906.94089.55906-.00559,1.13952-.00559,1.13954M18.14,27.81225l.94089.55906.00559-1.13954-.94089-.55906L18.14,27.81225" style="fill:#fff;fill-rule:evenodd"/><polyline id="_Path_11" data-name="&lt;Path&gt;" points="21.898 31.188 22.839 31.747 22.844 30.608 22.85 29.468 23.791 30.027 23.796 28.888 22.856 28.328 22.861 27.189 21.92 26.63 21.915 27.769 21.909 28.909 21.903 30.048 21.898 31.188" style="fill:#fff;fill-rule:evenodd"/><polyline id="_Path_12" data-name="&lt;Path&gt;" points="23.796 28.888 24.737 29.447 24.743 28.307 23.802 27.748" style="fill:#fff;fill-rule:evenodd"/><polyline id="_Path_13" data-name="&lt;Path&gt;" points="23.78 32.306 24.721 32.865 25.661 33.424 25.667 32.285 24.726 31.726 24.732 30.586 23.791 30.027 23.785 31.167 23.78 32.306" style="fill:#fff;fill-rule:evenodd"/><polyline id="_Path_14" data-name="&lt;Path&gt;" points="24.704 36.284 25.645 36.843 25.65 35.703 25.656 34.564 24.715 34.005 24.709 35.144 24.704 36.284" style="fill:#fff;fill-rule:evenodd"/><path id="_Compound_Path_5" data-name="&lt;Compound Path&gt;" d="M5.85253,31.9398l.94088.55906.94089.55906.94088.55906.94089.55906.94088.55906.94089.55906.94088.55906.00559-1.13954.00559-1.13952.00559-1.13954.00559-1.13952.00559-1.13954.00559-1.13952.00559-1.13954-.94088-.55906-.94089-.55906-.94088-.55906-.94089-.55906-.94088-.55906-.94089-.55906-.94088-.55906L5.8861,25.10261l-.00559,1.13952-.00559,1.13954-.00559,1.13952-.00559,1.13954-.00559,1.13952L5.85253,31.9398m.94647-.58049.94089.55906.94088.55906.94089.55906.94088.55906.94089.55906L11.509,33.0151l.00559-1.13954.00559-1.13952.00559-1.13954L11.5314,28.457l-.94089-.55906-.94088-.55906-.94089-.55906-.94088-.55906L6.827,25.66166l-.00559,1.13952-.00559,1.13954-.00559,1.13952L6.8046,30.21979,6.799,31.35932" style="fill:#fff;fill-rule:evenodd"/><path id="_Compound_Path_6" data-name="&lt;Compound Path&gt;" d="M13.3796,36.41228l.94088.55906.00559-1.13954.00559-1.13952.94089.55906.00559-1.13954-.94089-.55906.00559-1.13952.94089.55906-.00559,1.13952.94088.55906.94089.55906-.00559,1.13954-.94089-.55906-.94088-.55906L15.267,36.39086l-.00559,1.13954.94088.55906.00559-1.13954.94089.55906-.00559,1.13954.94088.55906.00559-1.13954.94089.55906.94088.55906-.00559,1.13954.94089.55907.94087.55905.94089.55906.94088.55906.00559-1.13954.00559-1.13952-.94088-.55906.00559-1.13954.94088.55906.00559-1.13952.94089.55906.00559-1.13954-.94089-.55906.00559-1.13952.00559-1.13954-.94088-.55906-.94089-.55906-.00559,1.13954-.00559,1.13952-.94087-.55905-.00559,1.13954-.00559,1.13952.94087.55905-.00559,1.13954-.94087-.55905.00559-1.13954-.94089-.55907.00559-1.13952-.94088-.55906.00559-1.13954L18.112,33.5099l-.00559,1.13954-.94088-.55906.00559-1.13954-.94089-.55906.00559-1.13952.94089.55906.00559-1.13954-.94089-.55906-.94088-.55906-.00559,1.13954-.94089-.55906-.00559,1.13952-.94088-.55906L13.402,31.85415l-.00559,1.13952-.00559,1.13954-.00559,1.13952-.00559,1.13954m4.7156.51623.94089.55906.00559-1.13954L18.1008,35.789l-.00559,1.13954" style="fill:#fff;fill-rule:evenodd"/><polyline id="_Path_15" data-name="&lt;Path&gt;" points="18.118 32.37 19.058 32.929 19.064 31.79 18.123 31.231" style="fill:#fff;fill-rule:evenodd"/><polyline id="_Path_16" data-name="&lt;Path&gt;" points="19.994 34.628 20.935 35.187 20.94 34.048 19.999 33.489" style="fill:#fff;fill-rule:evenodd"/><polyline id="_Path_17" data-name="&lt;Path&gt;" points="7.745 30.779 8.686 31.338 9.627 31.897 10.568 32.456 10.574 31.316 10.579 30.177 10.585 29.037 9.644 28.478 8.703 27.919 7.762 27.36 7.757 28.5 7.751 29.639 7.745 30.779" style="fill:#fff;fill-rule:evenodd"/><polyline id="_Path_18" data-name="&lt;Path&gt;" points="24.676 41.981 25.617 42.541 25.622 41.401 24.681 40.842" style="fill:#fff;fill-rule:evenodd"/></g><path d="M28.01482,14.06911,4.41334.7939A.9279.9279,0,0,0,3.57266.68526.78209.78209,0,0,0,3.4879.71355a.78972.78972,0,0,0-.08482.02824A.78224.78224,0,0,0,3.31831.77.77592.77592,0,0,0,3.2335.79832a.77405.77405,0,0,0-.08472.02824.77671.77671,0,0,0-.08486.02829A.79205.79205,0,0,0,2.979.88313a.78161.78161,0,0,0-.08457.02824.78663.78663,0,0,0-.08487.02824A.7786.7786,0,0,0,2.7248.9679a.77447.77447,0,0,0-.08472.02824.787.787,0,0,0-.08486.02824.7892.7892,0,0,0-.08477.02829.77526.77526,0,0,0-.08477.02824.77554.77554,0,0,0-.08477.02829.7717.7717,0,0,0-.08481.02824.777.777,0,0,0-.08491.02834.78587.78587,0,0,0-.08463.02819.7794.7794,0,0,0-.08482.02829.77485.77485,0,0,0-.08477.02824.78563.78563,0,0,0-.08477.02829A.78972.78972,0,0,0,1.7074,1.307a.77141.77141,0,0,0-.08477.02824.78209.78209,0,0,0-.08477.02829.77952.77952,0,0,0-.08482.02824.77168.77168,0,0,0-.08477.02829.78493.78493,0,0,0-.08491.02829.77941.77941,0,0,0-.08462.02824.77685.77685,0,0,0-.08486.02824.779.779,0,0,0-.08477.02829c-.55028.15114-.92865.906-.92865,2.0395L0,32.15437c0,1.60218.75422,3.348,1.68457,3.89942l3.35564,1.98875,5.39888,3.19974,15.434,8.08672a.92758.92758,0,0,0,.84068.10864,841082.211,841082.211,0,0,1,.16944-.05648c1.68869-.67809,2.71574-.64931,2.71574-2.83088l.10047-28.58174C29.69939,16.36636,28.94517,14.62056,28.01482,14.06911Z" style="fill:#6baae6"/><path d="M25.97353,14.94526,1.785,1.67C.85469,1.11861.10047,1.97045.10047,3.57263L0,32.15437c0,1.60218.75422,3.348,1.68457,3.89942l3.35559,1.98875,4.40259,2.60924L25.87306,49.329c.93035.5514,1.68457-.30044,1.68457-1.90262l.10047-28.58174C27.65809,17.24246,26.90388,15.49661,25.97353,14.94526Z" style="fill:#fff"/><g id="_Group_2" data-name="&lt;Group&gt;"><path id="_Compound_Path_7" data-name="&lt;Compound Path&gt;" d="M4.027,16.64677l.94279.56019.9428.5602.94279.56019.9428.5602.94279.56019.9428.5602.94279.56019.00561-1.14186.00561-1.14184.00561-1.14186.00561-1.14184.00561-1.14186.00561-1.14184.00561-1.14186L9.723,12.015l-.9428-.5602-.94279-.56019-.9428-.5602L5.9518,9.77422,5.009,9.214l-.94279-.56019L4.0606,9.79568,4.055,10.93752l-.00561,1.14186-.00561,1.14184-.00561,1.14186-.00561,1.14184L4.027,16.64677m.94839-.58167.9428.5602.94279.56019.9428.5602.94279.56019.9428.5602.00561-1.14184.00561-1.14186.00561-1.14184.00561-1.14186.00561-1.14184-.9428-.5602-.94279-.56019-.9428-.5602-.94279-.56019-.9428-.5602-.00561,1.14184-.00561,1.14186L4.98657,13.7814,4.981,14.92326,4.97536,16.0651" style="fill:#fff;fill-rule:evenodd"/><path id="_Compound_Path_8" data-name="&lt;Compound Path&gt;" d="M15.35171,21.08542l.94279.56019.00561-1.14186.00561-1.14184.00561-1.14186.00561-1.14184.00561-1.14186-.94279-.56019-.9428-.5602-.94279-.56019-.00561,1.14186-.9428-.5602-.94279-.56019-.00561,1.14184.94279.56019.9428.5602-.00561,1.14186.94279.56019.9428.5602-.00561,1.14184-.00561,1.14186m-.926-3.98575.9428.5602.00561-1.14184-.9428-.5602-.00561,1.14184" style="fill:#fff;fill-rule:evenodd"/><path id="_Compound_Path_9" data-name="&lt;Compound Path&gt;" d="M17.22609,24.4895l.94279.56019.9428.5602.94278.56019.9428.5602.94279.56019.9428.5602.94279.56019.00561-1.14186.00561-1.14184.00561-1.14186.00561-1.14184.00561-1.14186.00561-1.14184.00561-1.14186-.94279-.56019-.9428-.5602-.94279-.56019-.9428-.5602-.94278-.56019-.9428-.5602-.94279-.56019-.00561,1.14186-.00561,1.14184-.00561,1.14186-.00561,1.14184-.00561,1.14186-.00561,1.14184-.00561,1.14186m.94839-.58167.9428.5602.94278.56019.9428.5602.94279.56019.9428.5602.00561-1.14184.00561-1.14186.00561-1.14184.00561-1.14186.00561-1.14184-.9428-.5602-.94279-.56019-.9428-.5602-.94278-.56019-.9428-.5602-.00561,1.14184L18.1913,20.4823l-.00561,1.14184L18.18008,22.766l-.00561,1.14184" style="fill:#fff;fill-rule:evenodd"/><polyline id="_Path_19" data-name="&lt;Path&gt;" points="5.924 15.483 6.867 16.044 7.809 16.604 8.752 17.164 8.758 16.022 8.763 14.88 8.769 13.738 7.826 13.178 6.883 12.618 5.941 12.058 5.935 13.2 5.929 14.342 5.924 15.483" style="fill:#fff;fill-rule:evenodd"/><polyline id="_Path_20" data-name="&lt;Path&gt;" points="19.123 23.326 20.066 23.886 21.008 24.447 21.951 25.007 21.957 23.865 21.962 22.723 21.968 21.581 21.025 21.021 20.082 20.461 19.14 19.901 19.134 21.043 19.128 22.184 19.123 23.326" style="fill:#fff;fill-rule:evenodd"/><polyline id="_Path_21" data-name="&lt;Path&gt;" points="12.523 19.405 13.466 19.965 13.472 18.823 13.477 17.681 12.535 17.121 11.592 16.561 11.586 17.703 12.529 18.263 12.523 19.405" style="fill:#fff;fill-rule:evenodd"/><polyline id="_Path_22" data-name="&lt;Path&gt;" points="11.569 21.128 12.512 21.689 12.518 20.547 12.523 19.405 11.581 18.845 11.575 19.986 11.569 21.128" style="fill:#fff;fill-rule:evenodd"/><polyline id="_Path_23" data-name="&lt;Path&gt;" points="14.403 21.667 15.346 22.227 15.352 21.085 14.409 20.525" style="fill:#fff;fill-rule:evenodd"/><polyline id="_Path_24" data-name="&lt;Path&gt;" points="13.455 22.249 14.398 22.809 14.403 21.667 13.461 21.107" style="fill:#fff;fill-rule:evenodd"/><polyline id="_Path_25" data-name="&lt;Path&gt;" points="15.34 23.369 16.283 23.929 16.289 22.787 15.346 22.227" style="fill:#fff;fill-rule:evenodd"/><polyline id="_Path_26" data-name="&lt;Path&gt;" points="12.506 22.83 13.449 23.391 13.455 22.249 12.512 21.689" style="fill:#fff;fill-rule:evenodd"/><polyline id="_Path_27" data-name="&lt;Path&gt;" points="4.936 24.058 5.879 24.618 6.822 25.178 6.827 24.037 7.77 24.597 7.765 25.739 8.707 26.299 8.713 25.157 8.719 24.015 7.776 23.455 7.781 22.313 6.839 21.753 6.844 20.611 7.787 21.171 7.781 22.313 8.724 22.873 8.719 24.015 9.661 24.575 10.604 25.136 11.547 25.696 12.49 26.256 12.495 25.114 11.553 24.554 10.61 23.994 9.667 23.433 9.673 22.292 8.73 21.731 8.735 20.59 7.793 20.029 6.85 19.469 5.907 18.909 4.964 18.349 4.021 17.789 4.016 18.93 4.959 19.491 5.901 20.051 5.896 21.193 4.953 20.632 4.01 20.072 4.005 21.214 3.999 22.356 4.942 22.916 4.936 24.058" style="fill:#fff;fill-rule:evenodd"/><polyline id="_Path_28" data-name="&lt;Path&gt;" points="9.673 22.292 10.615 22.852 11.558 23.412 12.501 23.972 12.506 22.83 11.564 22.27 10.621 21.71 9.678 21.15 9.673 22.292" style="fill:#fff;fill-rule:evenodd"/><path id="_Compound_Path_10" data-name="&lt;Compound Path&gt;" d="M11.52447,30.26311l.94279.56019.00561-1.14186.00561-1.14184.9428.5602.94279.56019.00561-1.14186.9428.5602-.00561,1.14186L15.30125,31.362l.94279.56019.00561-1.14184.00561-1.14186.9428.5602.94279.56019-.00561,1.14186-.00561,1.14184.9428.5602L19.078,32.461l.00561-1.14186.00561-1.14184.00561-1.14186.00561-1.14184.00561-1.14186-.9428-.5602-.00561,1.14186-.94279-.56019.00561-1.14186-.9428-.5602L16.27207,26.213l-.94279-.56019.00561-1.14186-.9428-.5602-.00561,1.14186-.00561,1.14184.9428.5602-.00561,1.14186-.9428-.5602.00561-1.14186-.94279-.56019-.00561,1.14186-.9428-.5602-.00561,1.14184-.94279-.56019-.9428-.5602-.94279-.56019L9.65009,26.859l.94279.56019.9428.5602-.00561,1.14184-.00561,1.14186m4.73639-1.76642.9428.5602.00561-1.14186-.9428-.5602-.00561,1.14186" style="fill:#fff;fill-rule:evenodd"/><polyline id="_Path_29" data-name="&lt;Path&gt;" points="20.026 31.879 20.969 32.44 20.975 31.298 20.98 30.156 21.923 30.716 21.929 29.574 20.986 29.014 20.992 27.872 20.049 27.312 20.043 28.454 20.038 29.596 20.032 30.737 20.026 31.879" style="fill:#fff;fill-rule:evenodd"/><polyline id="_Path_30" data-name="&lt;Path&gt;" points="21.929 29.574 22.872 30.134 22.877 28.993 21.934 28.432" style="fill:#fff;fill-rule:evenodd"/><polyline id="_Path_31" data-name="&lt;Path&gt;" points="21.912 33 22.855 33.56 23.798 34.12 23.803 32.978 22.86 32.418 22.866 31.276 21.923 30.716 21.918 31.858 21.912 33" style="fill:#fff;fill-rule:evenodd"/><polyline id="_Path_32" data-name="&lt;Path&gt;" points="22.838 36.985 23.781 37.546 23.786 36.404 23.792 35.262 22.849 34.702 22.844 35.844 22.838 36.985" style="fill:#fff;fill-rule:evenodd"/><path id="_Compound_Path_11" data-name="&lt;Compound Path&gt;" d="M3.94848,32.63263l.94279.56019.9428.5602.94279.56019.9428.5602.94279.56019.9428.5602.94279.56019.00561-1.14186.00561-1.14184.00561-1.14186.00561-1.14184.00561-1.14186.00561-1.14184.00561-1.14186-.94279-.56019-.9428-.5602-.94279-.56019-.9428-.5602-.94279-.56019-.9428-.5602-.94279-.56019-.00561,1.14186-.00561,1.14184L3.9709,28.06524,3.9653,29.20708l-.00561,1.14186-.00561,1.14184-.00561,1.14186m.94839-.58167.9428.5602.94279.56019.9428.5602.94279.56019.9428.5602.00561-1.14184.00561-1.14186.00561-1.14184.00561-1.14186.00561-1.14184-.9428-.5602-.94279-.56019-.9428-.5602-.94279-.56019-.9428-.5602-.00561,1.14184-.00561,1.14186-.00561,1.14184-.00561,1.14186L4.89687,32.051" style="fill:#fff;fill-rule:evenodd"/><path id="_Compound_Path_12" data-name="&lt;Compound Path&gt;" d="M11.49083,37.11419l.94279.56019.00561-1.14186.00561-1.14184.9428.5602.00561-1.14186-.9428-.5602L12.456,33.107l.9428.5602L13.39324,34.809l.94279.56019.9428.5602-.00561,1.14186-.9428-.5602-.94279-.56019L13.382,37.09272l-.00561,1.14186.94279.56019.00561-1.14186.9428.5602L15.262,39.355l.94279.56019.00561-1.14186.9428.5602.94279.56019-.00561,1.14186.9428.5602.94278.56019.9428.5602.94279.56019.00561-1.14186.00561-1.14184L20.93,40.43245l.00561-1.14186.94279.56019.00561-1.14184.9428.5602.00561-1.14186-.9428-.5602.00561-1.14184.00561-1.14186L20.958,34.7232l-.9428-.5602-.00561,1.14186L20.004,36.4467l-.94278-.56019-.00561,1.14186L19.05,38.1702l.94278.56019-.00561,1.14186-.94278-.56019L19.05,38.1702l-.9428-.5602.00561-1.14184L17.17,35.908l.00561-1.14186-.9428-.5602-.00561,1.14186-.94279-.56019L15.29,33.64573l-.9428-.5602.00561-1.14184.9428.5602.00561-1.14186-.9428-.5602-.94279-.56019-.00561,1.14186-.9428-.5602-.00561,1.14184-.94279-.56019-.00561,1.14186-.00561,1.14184L11.502,34.8305l-.00561,1.14184-.00561,1.14186m4.72518.51728.9428.5602.00561-1.14186-.9428-.5602L16.216,37.63147" style="fill:#fff;fill-rule:evenodd"/><polyline id="_Path_33" data-name="&lt;Path&gt;" points="16.238 33.064 17.181 33.624 17.187 32.482 16.244 31.922" style="fill:#fff;fill-rule:evenodd"/><polyline id="_Path_34" data-name="&lt;Path&gt;" points="18.118 35.326 19.061 35.887 19.067 34.745 18.124 34.184" style="fill:#fff;fill-rule:evenodd"/><polyline id="_Path_35" data-name="&lt;Path&gt;" points="5.845 31.469 6.788 32.03 7.731 32.59 8.674 33.15 8.679 32.008 8.685 30.866 8.69 29.724 7.748 29.164 6.805 28.604 5.862 28.044 5.856 29.186 5.851 30.327 5.845 31.469" style="fill:#fff;fill-rule:evenodd"/><polyline id="_Path_36" data-name="&lt;Path&gt;" points="22.81 42.695 23.753 43.255 23.758 42.113 22.816 41.553" style="fill:#fff;fill-rule:evenodd"/></g><polygon points="6.46 20.266 3.237 18.385 3.309 7.122 6.532 9.003 6.46 20.266" style="fill:#eac941;fill-rule:evenodd"/><polygon points="6.474 18.014 3.251 16.133 3.266 13.88 6.488 15.761 6.474 18.014" style="fill:#cc7831;fill-rule:evenodd"/><polygon points="6.488 15.761 3.266 13.88 3.28 11.627 6.503 13.509 6.488 15.761" style="fill:#2f9ef2;fill-rule:evenodd"/><polygon points="6.503 13.509 3.28 11.627 3.294 9.375 6.517 11.256 6.503 13.509" style="fill:#2c57f4;fill-rule:evenodd"/><polygon points="6.517 11.256 3.294 9.375 3.309 7.122 6.532 9.003 6.517 11.256" style="fill:#9bbf4d;fill-rule:evenodd"/><polygon points="12.203 23.619 8.98 21.737 8.998 18.922 12.221 20.803 12.203 23.619" style="fill:#cc7831;fill-rule:evenodd"/><polygon points="12.221 20.803 8.998 18.922 9.016 16.106 12.239 17.987 12.221 20.803" style="fill:#eac941;fill-rule:evenodd"/><polygon points="12.239 17.987 9.016 16.106 9.034 13.29 12.257 15.172 12.239 17.987" style="fill:#2c57f4;fill-rule:evenodd"/><polygon points="12.257 15.172 9.034 13.29 9.052 10.474 12.275 12.356 12.257 15.172" style="fill:#9bbf4d;fill-rule:evenodd"/><polygon points="6.372 34.058 3.149 32.177 3.173 28.433 6.396 30.314 6.372 34.058" style="fill:#eac941;fill-rule:evenodd"/><polygon points="6.396 30.314 3.173 28.433 3.197 24.689 6.419 26.57 6.396 30.314" style="fill:#cc7831;fill-rule:evenodd"/><polygon points="6.419 26.57 3.197 24.689 3.22 20.944 6.443 22.826 6.419 26.57" style="fill:#9bbf4d;fill-rule:evenodd"/><polygon points="12.115 37.411 8.892 35.53 8.916 31.785 12.139 33.667 12.115 37.411" style="fill:#cc7831;fill-rule:evenodd"/><polygon points="12.139 33.667 8.916 31.785 8.94 28.041 12.163 29.922 12.139 33.667" style="fill:#9bbf4d;fill-rule:evenodd"/><polygon points="12.163 29.922 8.94 28.041 8.964 24.297 12.187 26.178 12.163 29.922" style="fill:#eac941;fill-rule:evenodd"/><polygon points="17.858 40.763 14.635 38.882 14.671 33.266 17.894 35.147 17.858 40.763" style="fill:#eac941;fill-rule:evenodd"/><polygon points="17.894 35.147 14.671 33.266 14.707 27.649 17.93 29.53 17.894 35.147" style="fill:#9bbf4d;fill-rule:evenodd"/><polygon points="23.601 44.116 20.378 42.234 20.414 36.618 23.637 38.499 23.601 44.116" style="fill:#cc7831;fill-rule:evenodd"/><polygon points="23.637 38.499 20.414 36.618 20.45 31.002 23.673 32.883 23.637 38.499" style="fill:#eac941;fill-rule:evenodd"/><polygon points="17.946 26.971 14.723 25.09 14.741 22.274 17.964 24.155 17.946 26.971" style="fill:#2a2a5d;fill-rule:evenodd"/><polygon points="17.964 24.155 14.741 22.274 14.759 19.458 17.982 21.34 17.964 24.155" style="fill:#9bbf4d;fill-rule:evenodd"/><polygon points="17.982 21.34 14.759 19.458 14.777 16.643 18 18.524 17.982 21.34" style="fill:#eac941;fill-rule:evenodd"/><polygon points="18 18.524 14.777 16.643 14.795 13.827 18.018 15.708 18 18.524" style="fill:#cc7831;fill-rule:evenodd"/><polygon points="23.689 30.324 20.466 28.442 20.484 25.627 23.707 27.508 23.689 30.324" style="fill:#eac941;fill-rule:evenodd"/><polygon points="23.707 27.508 20.484 25.627 20.502 22.811 23.725 24.692 23.707 27.508" style="fill:#2f9ef2;fill-rule:evenodd"/><polygon points="23.725 24.692 20.502 22.811 20.52 19.995 23.743 21.876 23.725 24.692" style="fill:#2c57f4;fill-rule:evenodd"/><polygon points="23.743 21.876 20.52 19.995 20.538 17.179 23.761 19.061 23.743 21.876" style="fill:#9bbf4d;fill-rule:evenodd"/></g></g></svg>