<?xml version="1.0" encoding="utf-8"?>
<!-- Generator: Adobe Illustrator 21.1.0, SVG Export Plug-In . SVG Version: 6.00 Build 0)  -->
<svg version="1.1" id="Layer_1" xmlns="http://www.w3.org/2000/svg" xmlns:xlink="http://www.w3.org/1999/xlink" x="0px" y="0px"
	 viewBox="0 0 48.5 57.8" style="enable-background:new 0 0 48.5 57.8;" xml:space="preserve">
<style type="text/css">
	.st0{clip-path:url(#SVGID_2_);fill:#F05D2B;}
</style>
<g>
	<defs>
		<rect id="SVGID_1_" y="0" width="48.5" height="57.8"/>
	</defs>
	<clipPath id="SVGID_2_">
		<use xlink:href="#SVGID_1_"  style="overflow:visible;"/>
	</clipPath>
	<path class="st0" d="M24.3,57.8c-0.6,0-1.3-0.1-1.9-0.3C-0.8,49.3,0,26.1,0,25.9v-13c0-1.5,0.9-2.9,2.3-3.6l20.3-9
		c1-0.4,2.2-0.4,3.2,0l20.3,9c1.4,0.6,2.3,2,2.3,3.6v13c0,0.2,0.8,23.4-22.4,31.5C25.5,57.7,24.9,57.8,24.3,57.8 M24.3,1
		c-0.4,0-0.8,0.1-1.2,0.2l-20.3,9C1.7,10.7,1,11.7,1,12.9v13c0,0.2-0.8,22.7,21.7,30.6c1,0.3,2.1,0.3,3.1,0
		C48.3,48.6,47.5,26.2,47.5,26V12.9c0-1.1-0.7-2.2-1.7-2.7l-20.3-9C25.1,1.1,24.7,1,24.3,1"/>
	<path class="st0" d="M24.3,54.4c-0.4,0-0.8-0.1-1.2-0.2C2.2,47.1,2.9,26.5,2.9,26.3V14.4c0-1.1,0.7-2.1,1.7-2.6l18.5-8.2
		c0.7-0.3,1.6-0.3,2.3,0l18.5,8.2c1,0.4,1.7,1.5,1.7,2.6v11.9c0,0.2,0.7,20.8-20.1,27.9C25.1,54.3,24.7,54.4,24.3,54.4 M24.3,4.4
		c-0.3,0-0.5,0.1-0.7,0.2L5,12.8c-0.7,0.3-1.1,0.9-1.1,1.7v11.9c0,0.2-0.7,20.1,19.4,26.9c0.6,0.2,1.3,0.2,1.8,0
		c20.1-6.8,19.4-26.7,19.4-26.9l0-11.9c0-0.7-0.4-1.4-1.1-1.7L25,4.6C24.8,4.5,24.5,4.4,24.3,4.4"/>
	<path class="st0" d="M32.5,26.2L32.5,26.2L32.5,26.2c-1.9,0-3.5-1.6-3.5-3.5c0-1.9,1.6-3.5,3.5-3.5c0.9,0,1.8,0.4,2.5,1
		c0.7,0.7,1,1.5,1,2.5C36,24.6,34.4,26.2,32.5,26.2 M32.5,20.1c-1.4,0-2.5,1.1-2.5,2.5c0,1.4,1.1,2.5,2.5,2.5v0.5l0-0.5
		c1.4,0,2.5-1.1,2.5-2.5c0-0.7-0.3-1.3-0.7-1.8C33.8,20.4,33.1,20.1,32.5,20.1"/>
	<path class="st0" d="M16,26.2L16,26.2c-0.9,0-1.8-0.4-2.5-1s-1-1.5-1-2.5c0-1.9,1.6-3.5,3.5-3.5c1.9,0,3.5,1.6,3.5,3.5
		C19.5,24.6,17.9,26.2,16,26.2 M16,20.1c-1.4,0-2.5,1.1-2.5,2.5c0,0.7,0.3,1.3,0.7,1.8c0.5,0.5,1.1,0.7,1.8,0.7l0,0.5l0-0.5
		c1.4,0,2.5-1.1,2.5-2.5C18.5,21.3,17.3,20.2,16,20.1"/>
	<path class="st0" d="M24.2,36.7L24.2,36.7c-1.9,0-3.5-1.6-3.5-3.5c0-1.9,1.6-3.5,3.5-3.5c0.9,0,1.8,0.4,2.5,1c0.7,0.7,1,1.5,1,2.5
		C27.7,35.1,26.1,36.7,24.2,36.7 M24.2,30.7c-1.4,0-2.5,1.1-2.5,2.5c0,1.4,1.1,2.5,2.5,2.5l0,0.5l0-0.5c1.4,0,2.5-1.1,2.5-2.5
		c0-0.7-0.3-1.3-0.7-1.8C25.5,31,24.8,30.7,24.2,30.7"/>
	<rect x="19.6" y="24.2" transform="matrix(0.7889 -0.6146 0.6146 0.7889 -12.9269 18.2204)" class="st0" width="1" height="7.4"/>
	<rect x="24.6" y="27.4" transform="matrix(0.6192 -0.7852 0.7852 0.6192 -11.143 32.8722)" class="st0" width="7.4" height="1"/>
</g>
</svg>
