<svg xmlns="http://www.w3.org/2000/svg" width="77.17542" height="54.3624" viewBox="0 0 77.17542 54.3624"><title>Asset 3</title><g style="isolation:isolate"><g id="Layer_2" data-name="Layer 2"><g id="_ÎÓÈ_1" data-name="—ÎÓÈ_1"><path d="M38.58752,54.3624a11.36836,11.36836,0,0,1-5.685-1.5184L3.052,35.6098a6.10405,6.10405,0,0,1,0-10.5725L32.90252,7.8031a11.4011,11.4011,0,0,1,11.3701,0l29.8506,17.2342a6.10385,6.10385,0,0,1,0,10.5725L44.27262,52.844A11.36845,11.36845,0,0,1,38.58752,54.3624Zm0-47.3849a10.67518,10.67518,0,0,0-5.3387,1.4259L3.39842,25.6376a5.4109,5.4109,0,0,0,0,9.3719l29.8504,17.2342a10.70626,10.70626,0,0,0,10.6774,0l29.8506-17.2342a5.4107,5.4107,0,0,0,0-9.3719L43.92622,8.4034A10.67409,10.67409,0,0,0,38.58752,6.9775Z" style="fill:#6cbded;opacity:0.2;mix-blend-mode:multiply"/><path d="M33.07572,46.264,3.22522,29.0298a5.75745,5.75745,0,0,1,0-9.9722L33.07572,1.8234a11.02386,11.02386,0,0,1,11.0238,0L73.95,19.0576a5.75745,5.75745,0,0,1,0,9.9722L44.09952,46.264A11.02386,11.02386,0,0,1,33.07572,46.264Z" style="fill:none;stroke:#6cbded;stroke-miterlimit:10;stroke-width:0.692998px"/></g></g></g></svg>