<svg xmlns="http://www.w3.org/2000/svg" width="82.83447" height="98.45538" viewBox="0 0 82.83447 98.45538"><title>Asset 10</title><g id="Layer_2" data-name="Layer 2"><g id="Layer_1-2" data-name="Layer 1"><path d="M41.41463,98.45538a9.06846,9.06846,0,0,1-2.914-.479c-39.895-13.513-38.511-53.143-38.491-53.543l-.004-23.975a3.86953,3.86953,0,0,1,2.302-3.534l37.538-16.596a3.91228,3.91228,0,0,1,3.147.004l37.518,16.586a3.88993,3.88993,0,0,1,2.315,3.553v24.093c.016.269,1.4,39.899-38.495,53.412a9.0897,9.0897,0,0,1-2.916.479m-35.849-76.893v23.002c-.067,1.585-1.144,35.999,34.718,48.146a3.55134,3.55134,0,0,0,2.264,0c35.862-12.147,34.785-46.561,34.722-48.021l-.004-23.127-35.851-15.85Z" style="fill:#231f20"/><path d="M71.12763,27.78748l-1.552-2.665a1.42376,1.42376,0,0,0-1.946-.513l-26.215,15.276-25.785-15.025a1.42149,1.42149,0,0,0-1.94413.51151l-.00087.0015-1.552,2.665a1.05067,1.05067,0,0,0,.37749,1.43712l.00151.00088,26.123,15.222v38.482a1.05073,1.05073,0,0,0,1.051,1.05h3.458a1.05072,1.05072,0,0,0,1.051-1.05v-38.481l26.554-15.474a1.05155,1.05155,0,0,0,.379-1.438" style="fill:#8cc240"/><path d="M38.635,61.18738v21.993a1.05094,1.05094,0,0,0,1.05088,1.051H43.144a1.05158,1.05158,0,0,0,1.051-1.051v-21.993Z" style="fill:#e47926"/></g></g></svg>