<svg xmlns="http://www.w3.org/2000/svg" width="99.99839mm" height="60.00045mm" viewBox="0 0 283.45999 170.08"><title>Asset 1</title><g id="Layer_2" data-name="Layer 2"><g id="Layer_1-2" data-name="Layer 1"><path d="M142.69431,85.2123c.527,1.232,1.32,3.61,1.409,3.963a22.19018,22.19018,0,0,1,1.407-3.963l11.712-23.248c.442-.88.882-1.673,1.939-1.673h5.371c1.143,0,1.761.528,1.143,1.673l-17.257,34.432v22.102c0,1.145-.441,1.672-1.585,1.672h-5.372c-1.233,0-1.673-.527-1.673-1.672V97.3633l-17.436-35.399c-.528-1.057,0-1.673,1.233-1.673h6.076c1.145,0,1.497.616,2.026,1.673Z" style="fill:#231f20"/><path d="M183.15919,97.893v20.518c0,1.232-.354,1.76-1.585,1.76h-5.372c-1.146,0-1.585-.528-1.585-1.76V62.053c0-1.233.439-1.762,1.585-1.762h17.876c15.145,0,19.989,6.341,19.989,13.562V84.331c0,7.221-4.844,13.562-19.989,13.562Zm0-30.293V90.583h10.919c7.926,0,11.447-2.905,11.447-7.661V75.261c0-4.755-3.521-7.661-11.447-7.661Z" style="fill:#231f20"/><path d="M225.35941,120.1721c-1.146,0-1.585-.53-1.585-1.761v-56.357c0-1.234.439-1.763,1.585-1.763h15.587c15.144,0,19.989,5.637,19.989,12.768v5.549c0,4.578-2.114,8.102-7.397,10.126,6.692,1.85,9.951,5.637,9.951,10.743v7.486c0,7.219-4.844,13.209-19.989,13.209Zm6.957-52.747v18.668h9.246c7.309,0,10.831-2.818,10.831-7.661v-4.05c0-4.845-3.522-6.957-11.447-6.957Zm0,25.361v20.253h11.184c7.923,0,11.447-2.731,11.447-7.573v-5.371c0-4.405-3.524-7.309-11.447-7.309Z" style="fill:#231f20"/><path d="M61.3856,134.2679a9.0687,9.0687,0,0,1-2.914-.479c-39.895-13.513-38.511-53.143-38.491-53.543l-.004-23.975a3.86953,3.86953,0,0,1,2.302-3.534l37.538-16.596a3.91228,3.91228,0,0,1,3.147.004l37.518,16.586a3.88993,3.88993,0,0,1,2.315,3.553v24.093c.016.269,1.4,39.899-38.495,53.412a9.08981,9.08981,0,0,1-2.916.479m-35.849-76.893v23.002c-.067,1.585-1.144,35.999,34.718,48.146a3.55133,3.55133,0,0,0,2.264,0c35.862-12.147,34.785-46.561,34.722-48.021l-.004-23.127-35.851-15.85Z" style="fill:#231f20"/><path d="M91.0986,63.6l-1.552-2.665a1.42376,1.42376,0,0,0-1.946-.513L61.3856,75.698,35.6006,60.673a1.42149,1.42149,0,0,0-1.945.513l-1.552,2.665a1.05067,1.05067,0,0,0,.379,1.438l26.123,15.222v38.482a1.05073,1.05073,0,0,0,1.051,1.05h3.458a1.05072,1.05072,0,0,0,1.051-1.05V80.512l26.554-15.474a1.05155,1.05155,0,0,0,.379-1.438" style="fill:#8cc240"/><path d="M58.606,96.9999v21.993a1.05094,1.05094,0,0,0,1.051,1.051h3.458a1.05158,1.05158,0,0,0,1.051-1.051V96.9999Z" style="fill:#e47926"/><path d="M61.3857,75.6977l26.215-15.275a1.42289,1.42289,0,0,1,1.946.513l1.552,2.664a1.053,1.053,0,0,1-.379,1.439l-26.554,15.473" style="fill:#f7cb2d"/><rect width="283.45999" height="170.08" style="fill:none"/></g></g></svg>