<svg xmlns="http://www.w3.org/2000/svg" xmlns:xlink="http://www.w3.org/1999/xlink" width="85.90789mm" height="34.73269mm" viewBox="0 0 243.51842 98.45487"><defs><clipPath id="clip-path" transform="translate(-0.00007)"><rect y="0.00007" width="243.51801" height="98.454" style="fill:none"/></clipPath></defs><title>Asset 1</title><g id="Layer_2" data-name="Layer 2"><g id="Layer_1-2" data-name="Layer 1"><g style="clip-path:url(#clip-path)">
<path d="M122.7234,49.39927c.528,1.232,1.32,3.61,1.408,3.962a22.15669,22.15669,0,0,1,1.409-3.962l11.712-23.248c.441-.88.881-1.673,1.938-1.673h5.371c1.144,0,1.761.528,1.144,1.673l-17.258,34.431v22.103c0,1.144-.441,1.672-1.585,1.672h-5.372c-1.233,0-1.673-.528-1.673-1.672v-21.135l-17.436-35.399c-.528-1.057,0-1.673,1.233-1.673h6.076c1.145,0,1.497.616,2.026,1.673Z" transform="translate(-0.00007)" style="fill:#fff"/>
<path d="M163.1882,62.079V82.597c0,1.232-.353,1.761-1.585,1.761h-5.372c-1.145,0-1.585-.529-1.585-1.761V26.24c0-1.233.44-1.762,1.585-1.762h17.876c15.146,0,19.989,6.341,19.989,13.562V48.518c0,7.221-4.843,13.561-19.989,13.561Zm0-30.292V54.77h10.919c7.926,0,11.447-2.905,11.447-7.661V39.448c0-4.755-3.521-7.661-11.447-7.661Z" transform="translate(-0.00007)" style="fill:#fff"/><path d="M205.3885,84.358c-1.145,0-1.585-.529-1.585-1.761V26.24c0-1.233.44-1.762,1.585-1.762h15.587c15.145,0,19.989,5.636,19.989,12.769v5.548c0,4.579-2.114,8.101-7.397,10.126,6.692,1.849,9.951,5.636,9.951,10.743v7.485c0,7.22-4.844,13.209-19.989,13.209Zm6.957-52.747V50.279h9.246c7.309,0,10.831-2.817,10.831-7.66V38.568c0-4.844-3.522-6.957-11.447-6.957Zm0,25.361V77.225h11.184c7.924,0,11.447-2.73,11.447-7.573V64.281c0-4.404-3.523-7.309-11.447-7.309Z" transform="translate(-0.00007)" style="fill:#fff"/><path d="M41.4147,98.45487a9.0687,9.0687,0,0,1-2.914-.479c-39.895-13.513-38.511-53.143-38.491-53.542l-.004-23.976a3.86684,3.86684,0,0,1,2.302-3.534L39.8457.32888a3.9123,3.9123,0,0,1,3.147.003l37.518,16.586a3.888,3.888,0,0,1,2.314,3.553v24.093c.016.269,1.401,39.899-38.494,53.412a9.08981,9.08981,0,0,1-2.916.479m-35.849-76.893v23.002c-.067,1.585-1.144,35.999,34.718,48.146a3.55133,3.55133,0,0,0,2.264,0c35.862-12.147,34.785-46.561,34.722-48.021l-.004-23.127-35.851-15.85Z" transform="translate(-0.00007)" style="fill:#fff"/><path d="M71.1277,27.787l-1.552-2.665a1.42376,1.42376,0,0,0-1.946-.513L41.4147,39.885,15.6297,24.86a1.42149,1.42149,0,0,0-1.945.513l-1.553,2.665a1.05185,1.05185,0,0,0,.38,1.438l26.123,15.223V83.18a1.05158,1.05158,0,0,0,1.051,1.051h3.458a1.05158,1.05158,0,0,0,1.051-1.051V44.699l26.554-15.474a1.05155,1.05155,0,0,0,.379-1.438" transform="translate(-0.00007)" style="fill:#fff"/></g></g></g></svg>