<svg xmlns="http://www.w3.org/2000/svg" width="27.36464" height="70.27738" viewBox="0 0 27.36464 70.27738"><title>Asset 3</title><g id="Layer_2" data-name="Layer 2"><g id="_ÎÓÈ_1" data-name="—ÎÓÈ_1"><path d="M4.84739.0667,1.1234.95547,22.75934,70.20112l3.06705-1.50943A2.78392,2.78392,0,0,0,27.36464,66.202V14.62639A5.38555,5.38555,0,0,0,24.632,9.93957L6.81082.35827A2.76131,2.76131,0,0,0,4.84739.0667Z" style="fill:#3a6295"/><path d="M20.85113,69.84914,3.194,59.67705A7.0716,7.0716,0,0,1,.00944,54.13224L0,3.1351A2.16473,2.16473,0,0,1,1.1234.95547a2.34285,2.34285,0,0,1,2.05979.3033L20.84031,11.43086a7.07174,7.07174,0,0,1,3.18478,5.54485l.00944,50.99714c.00038,2.046-1.42777,2.88769-3.1834,1.87629Z" style="fill:#6cbded"/><path d="M20.93371,12.45593,3.09,2.17637C1.858,1.46658.85011,2.06078.85037,3.49655L.85987,54.75069a4.98653,4.98653,0,0,0,2.24064,3.9009L20.94417,68.93114c1.23219.70985,2.24011.11585,2.23985-1.31974l-.00949-51.25414A4.98705,4.98705,0,0,0,20.93371,12.45593Z" style="fill:#6cbded"/><path d="M20.93371,12.45593l-2.35937-1.35921c-.13756-.07924-.25472-.0413-.29556.08014l.00007.36615c.00015.79777-.55974,1.12772-1.24431.73334L6.9952,6.49279A2.77025,2.77025,0,0,1,5.75036,4.32547l0-.25434a.69259.69259,0,0,0-.31114-.54145L3.09,2.17637C1.858,1.46658.85011,2.06078.85037,3.49655L.85987,54.75069a4.98653,4.98653,0,0,0,2.24064,3.9009L20.94417,68.93114c1.23219.70985,2.24011.11585,2.23985-1.31974l-.00949-51.25414A4.98705,4.98705,0,0,0,20.93371,12.45593Z" style="fill:#fff"/><path d="M14.34644,9.65912c0,.24957-.17368.35144-.3879.228a.85948.85948,0,0,1-.388-.675c0-.24981.17358-.35175.3878-.22834A.85979.85979,0,0,1,14.34644,9.65912Z" style="fill:#fff"/><path d="M12.58532,8.874,9.87869,7.31478A.44485.44485,0,0,1,9.678,6.96553V6.92858c0-.12882.08981-.1819.2006-.11808l2.70663,1.55926a.44542.44542,0,0,1,.20065.34924v.03695c0,.12907-.08992.18183-.20056.1181Z" style="fill:#fff"/></g></g></svg>