<svg xmlns="http://www.w3.org/2000/svg" xmlns:xlink="http://www.w3.org/1999/xlink" width="69.2852" height="39.378" viewBox="0 0 69.2852 39.378"><defs><filter id="luminosity-noclip" x="0" y="-8136.73231" width="27.3906" height="32766" filterUnits="userSpaceOnUse" color-interpolation-filters="sRGB"><feFlood flood-color="#fff" result="bg"/><feBlend in="SourceGraphic" in2="bg"/></filter><mask id="mask" x="0" y="-8136.73231" width="27.3906" height="32766" maskUnits="userSpaceOnUse"><g style="filter:url(#luminosity-noclip)"/></mask><linearGradient id="linear-gradient" x1="69.67077" y1="20.68819" x2="91.09067" y2="33.66079" gradientTransform="matrix(-1, 0, 0, 1, 98.47011, 0)" gradientUnits="userSpaceOnUse"><stop offset="0" stop-color="#fff"/><stop offset="0.04713" stop-color="#e5e5e5"/><stop offset="0.15148" stop-color="#b0b0b0"/><stop offset="0.26012" stop-color="#818181"/><stop offset="0.37073" stop-color="#595959"/><stop offset="0.48387" stop-color="#393939"/><stop offset="0.60034" stop-color="#202020"/><stop offset="0.72146" stop-color="#0e0e0e"/><stop offset="0.85028" stop-color="#030303"/><stop offset="1"/></linearGradient><filter id="luminosity-noclip-2" x="41.8946" y="-8136.73231" width="27.3906" height="32766" filterUnits="userSpaceOnUse" color-interpolation-filters="sRGB"><feFlood flood-color="#fff" result="bg"/><feBlend in="SourceGraphic" in2="bg"/></filter><mask id="mask-2" x="41.8946" y="-8136.73231" width="27.3906" height="32766" maskUnits="userSpaceOnUse"><g style="filter:url(#luminosity-noclip-2)"/></mask><linearGradient id="linear-gradient-2" x1="209.65266" y1="20.68819" x2="231.07256" y2="33.66079" gradientTransform="translate(-169.1668)" xlink:href="#linear-gradient"/><linearGradient id="linear-gradient-3" x1="67.88173" y1="21.32776" x2="58.88682" y2="21.32776" gradientTransform="matrix(-1, 0, 0, 1, 98.47011, 0)" gradientUnits="userSpaceOnUse"><stop offset="0" stop-color="#2a2a5d"/><stop offset="1" stop-color="#6cbded"/></linearGradient><linearGradient id="linear-gradient-4" x1="80.17744" y1="12.33784" x2="17.93123" y2="12.33784" xlink:href="#linear-gradient-3"/><filter id="luminosity-noclip-3" x="0" y="20.2934" width="27.3906" height="19.0846" filterUnits="userSpaceOnUse" color-interpolation-filters="sRGB"><feFlood flood-color="#fff" result="bg"/><feBlend in="SourceGraphic" in2="bg"/></filter><mask id="mask-3" x="0" y="20.2934" width="27.3906" height="19.0846" maskUnits="userSpaceOnUse"><g style="mask:url(#mask);filter:url(#luminosity-noclip-3)"><polygon points="27.391 24.794 27.391 28.064 7.794 39.378 0 34.878 0 31.607 19.596 20.293 27.391 24.794" style="mix-blend-mode:multiply;fill:url(#linear-gradient)"/></g></mask><linearGradient id="linear-gradient-5" x1="69.67077" y1="20.68819" x2="91.09067" y2="33.66079" gradientTransform="matrix(-1, 0, 0, 1, 98.47011, 0)" gradientUnits="userSpaceOnUse"><stop offset="0" stop-color="#6cbded"/><stop offset="0.01607" stop-color="#68bfee" stop-opacity="0.96385"/><stop offset="0.12385" stop-color="#50cef2" stop-opacity="0.74048"/><stop offset="0.23596" stop-color="#3bdbf5" stop-opacity="0.54248"/><stop offset="0.35019" stop-color="#29e6f8" stop-opacity="0.37545"/><stop offset="0.46705" stop-color="#1aeffb" stop-opacity="0.23927"/><stop offset="0.5873" stop-color="#0ef6fd" stop-opacity="0.13382"/><stop offset="0.71236" stop-color="#06fbfe" stop-opacity="0.05892"/><stop offset="0.84539" stop-color="#02feff" stop-opacity="0.01437"/><stop offset="1" stop-color="aqua" stop-opacity="0"/></linearGradient><filter id="luminosity-noclip-4" x="41.8946" y="20.2934" width="27.3906" height="19.0846" filterUnits="userSpaceOnUse" color-interpolation-filters="sRGB"><feFlood flood-color="#fff" result="bg"/><feBlend in="SourceGraphic" in2="bg"/></filter><mask id="mask-4" x="41.8946" y="20.2934" width="27.3906" height="19.0846" maskUnits="userSpaceOnUse"><g style="mask:url(#mask-2);filter:url(#luminosity-noclip-4)"><polygon points="41.895 24.794 41.895 28.064 61.491 39.378 69.285 34.878 69.285 31.607 49.689 20.293 41.895 24.794" style="mix-blend-mode:multiply;fill:url(#linear-gradient-2)"/></g></mask><linearGradient id="linear-gradient-6" x1="209.65266" y1="20.68819" x2="231.07256" y2="33.66079" gradientTransform="translate(-169.1668)" xlink:href="#linear-gradient-5"/></defs><title>Asset 8</title><g id="Layer_2" data-name="Layer 2"><g id="_ÎÓÈ_1" data-name="—ÎÓÈ_1"><path d="M26.5336,12.7838l5.2393-3.0249a5.73932,5.73932,0,0,1,5.7395,0l5.23931,3.0249H55.1686v8.544a2.3594,2.3594,0,0,1-1.1908,2.0626L37.5124,32.8967a5.7398,5.7398,0,0,1-5.7395,0L15.3075,23.3904a2.35952,2.35952,0,0,1-1.1909-2.0626v-8.544Z" style="fill:url(#linear-gradient-3)"/><path d="M31.7738,23.9067,15.3083,14.4004a2.38175,2.38175,0,0,1,0-4.1252L31.7738.7689a5.73962,5.73962,0,0,1,5.7394,0l16.4654,9.5063a2.38168,2.38168,0,0,1,0,4.1252L37.5132,23.9067A5.73913,5.73913,0,0,1,31.7738,23.9067Z" style="fill:url(#linear-gradient-4)"/><g style="mask:url(#mask-3)"><polygon points="27.391 24.794 27.391 28.064 7.794 39.378 0 34.878 0 31.607 19.596 20.293 27.391 24.794" style="fill:url(#linear-gradient-5)"/></g><g style="mask:url(#mask-4)"><polygon points="41.895 24.794 41.895 28.064 61.491 39.378 69.285 34.878 69.285 31.607 49.689 20.293 41.895 24.794" style="fill:url(#linear-gradient-6)"/></g></g></g></svg>