<svg xmlns="http://www.w3.org/2000/svg" xmlns:xlink="http://www.w3.org/1999/xlink" width="60.2547" height="42.18918" viewBox="0 0 60.2547 42.18918"><defs><linearGradient id="linear-gradient" x1="380.30256" y1="24.08048" x2="390.43147" y2="24.08048" gradientTransform="matrix(-1, 0, 0, 1, 415.16939, 0)" gradientUnits="userSpaceOnUse"><stop offset="0" stop-color="#6cbded"/><stop offset="1" stop-color="#0071bc"/></linearGradient><linearGradient id="linear-gradient-2" x1="396.462" y1="25.43908" x2="372.32451" y2="25.43908" gradientTransform="matrix(-1, 0, 0, 1, 415.16939, 0)" gradientUnits="userSpaceOnUse"><stop offset="0" stop-color="#6cbded" stop-opacity="0.5"/><stop offset="1" stop-color="#fff"/></linearGradient><linearGradient id="linear-gradient-3" x1="389.24444" y1="18.10872" x2="379.91438" y2="18.10872" gradientTransform="matrix(-1, 0, 0, 1, 415.16939, 0)" gradientUnits="userSpaceOnUse"><stop offset="0" stop-color="aqua"/><stop offset="1" stop-color="#0071bc"/></linearGradient></defs><title>Asset 5</title><g id="Layer_2" data-name="Layer 2"><g id="_ÎÓÈ_1" data-name="—ÎÓÈ_1"><path d="M18.2248,11.54008l7.6899-4.4397a8.424,8.424,0,0,1,8.424,0l7.6899,4.4397,18.2249,7.2232v5.3172a3.463,3.463,0,0,1-1.7479,3.0273L34.3387,41.06058a8.424,8.424,0,0,1-8.424,0L1.7478,27.10778A3.46265,3.46265,0,0,1,0,24.08048v-5.3172Z" style="fill:url(#linear-gradient)"/><path d="M18.2248,18.76328l7.6899-4.4397a8.424,8.424,0,0,1,8.424,0l7.6899,4.4397H60.2535v.8112a3.463,3.463,0,0,1-1.7479,3.0273L34.3387,36.55458a8.424,8.424,0,0,1-8.424,0L1.7478,22.60178A3.46265,3.46265,0,0,1,0,19.57448v-.8112Z" style="fill:url(#linear-gradient-2)"/><path d="M25.916,35.08888,1.7491,21.13608a3.49565,3.49565,0,0,1,0-6.0547L25.916,1.12868a8.42353,8.42353,0,0,1,8.424,0l24.1669,13.9527a3.49572,3.49572,0,0,1,0,6.0547L34.34,35.08888A8.424,8.424,0,0,1,25.916,35.08888Z" style="fill:#6cbded"/><path d="M27.8574,27.26218l-13.0276-7.5215a1.8844,1.8844,0,0,1,0-3.2639l13.0276-7.5215a4.54123,4.54123,0,0,1,4.5412,0l13.0276,7.5215a1.8844,1.8844,0,0,1,0,3.2639l-13.0276,7.5215A4.54123,4.54123,0,0,1,27.8574,27.26218Z" style="fill:url(#linear-gradient-3)"/></g></g></svg>