<svg xmlns="http://www.w3.org/2000/svg" xmlns:xlink="http://www.w3.org/1999/xlink" width="60.2547" height="42.18917" viewBox="0 0 60.2547 42.18917"><defs><linearGradient id="linear-gradient" x1="380.30256" y1="24.08044" x2="390.43147" y2="24.08044" gradientTransform="matrix(-1, 0, 0, 1, 415.16939, 0)" gradientUnits="userSpaceOnUse"><stop offset="0" stop-color="#6cbded"/><stop offset="1" stop-color="#0071bc"/></linearGradient><linearGradient id="linear-gradient-2" x1="396.462" y1="25.43904" x2="372.32451" y2="25.43904" gradientTransform="matrix(-1, 0, 0, 1, 415.16939, 0)" gradientUnits="userSpaceOnUse"><stop offset="0" stop-color="#6cbded" stop-opacity="0.5"/><stop offset="1" stop-color="#fff"/></linearGradient></defs><title>Asset 4</title><g style="isolation:isolate"><g id="Layer_2" data-name="Layer 2"><g id="_ÎÓÈ_1" data-name="—ÎÓÈ_1"><path d="M18.2248,11.5401l7.6899-4.4398a8.424,8.424,0,0,1,8.424,0l7.6899,4.4398,18.2249,7.2232v5.3171a3.463,3.463,0,0,1-1.7479,3.0274L34.3387,41.0605a8.42353,8.42353,0,0,1-8.424,0L1.7478,27.1078A3.46269,3.46269,0,0,1,0,24.0804V18.7633Z" style="fill:url(#linear-gradient)"/><path d="M18.2248,18.7633l7.6899-4.4398a8.424,8.424,0,0,1,8.424,0l7.6899,4.4398H60.2535v.8111a3.463,3.463,0,0,1-1.7479,3.0274L34.3387,36.5545a8.42353,8.42353,0,0,1-8.424,0L1.7478,22.6018A3.46269,3.46269,0,0,1,0,19.5744v-.8111Z" style="fill:url(#linear-gradient-2)"/><path d="M25.916,35.0889,1.7491,21.1361a3.49565,3.49565,0,0,1,0-6.0547L25.916,1.1286a8.424,8.424,0,0,1,8.424,0L58.5069,15.0814a3.49572,3.49572,0,0,1,0,6.0547L34.34,35.0889A8.424,8.424,0,0,1,25.916,35.0889Z" style="fill:#29abe2"/><g style="mix-blend-mode:multiply"><path d="M25.9993,35.092,2.0369,21.2573a3.46608,3.46608,0,0,1,0-6.0035L25.9993,1.4191a8.353,8.353,0,0,1,8.3527,0L58.3144,15.2538a3.46616,3.46616,0,0,1,0,6.0035L34.352,35.092A8.353,8.353,0,0,1,25.9993,35.092Z" style="fill:#29abe2;opacity:0"/><path d="M26.0561,34.8626,2.4202,21.2164a3.41887,3.41887,0,0,1,0-5.9217L26.0561,1.6485a8.23878,8.23878,0,0,1,8.239,0l23.636,13.6462a3.41887,3.41887,0,0,1,0,5.9217L34.2951,34.8626A8.23878,8.23878,0,0,1,26.0561,34.8626Z" style="fill:#29abe2;opacity:0.0625"/><path d="M26.113,34.6333,2.8034,21.1755a3.37165,3.37165,0,0,1,0-5.8399L26.113,1.8778a8.12533,8.12533,0,0,1,8.1252,0L57.5479,15.3356a3.37173,3.37173,0,0,1,0,5.8399L34.2382,34.6333A8.12533,8.12533,0,0,1,26.113,34.6333Z" style="fill:#29abe2;opacity:0.125"/><path d="M26.1699,34.404,3.1867,21.1346a3.32444,3.32444,0,0,1,0-5.7581L26.1699,2.1071a8.01158,8.01158,0,0,1,8.0115,0L57.1646,15.3765a3.32444,3.32444,0,0,1,0,5.7581L34.1814,34.404A8.01158,8.01158,0,0,1,26.1699,34.404Z" style="fill:#29abe2;opacity:0.1875"/><path d="M26.2268,34.1747,3.57,21.0937a3.27715,3.27715,0,0,1,0-5.6763L26.2268,2.3364a7.89813,7.89813,0,0,1,7.8977,0l22.6568,13.081a3.27722,3.27722,0,0,1,0,5.6763L34.1245,34.1747A7.89813,7.89813,0,0,1,26.2268,34.1747Z" style="fill:#29abe2;opacity:0.25"/><path d="M26.2837,33.9453,3.9532,21.0528a3.23009,3.23009,0,0,1,0-5.5946L26.2837,2.5658a7.7837,7.7837,0,0,1,7.7839,0L56.398,15.4582a3.23,3.23,0,0,1,0,5.5946L34.0676,33.9453A7.7837,7.7837,0,0,1,26.2837,33.9453Z" style="fill:#29abe2;opacity:0.3125"/><path d="M26.3406,33.716,4.3365,21.012a3.18289,3.18289,0,0,1,0-5.5129L26.3406,2.7951a7.66977,7.66977,0,0,1,7.6701,0l22.0041,12.704a3.18289,3.18289,0,0,1,0,5.5129L34.0107,33.716A7.67025,7.67025,0,0,1,26.3406,33.716Z" style="fill:#29abe2;opacity:0.375"/><path d="M26.3975,33.4867,4.7198,20.9711a3.13567,3.13567,0,0,1,0-5.4311L26.3975,3.0244a7.55631,7.55631,0,0,1,7.5563,0L55.6315,15.54a3.13567,3.13567,0,0,1,0,5.4311L33.9538,33.4867A7.55631,7.55631,0,0,1,26.3975,33.4867Z" style="fill:#29abe2;opacity:0.4375"/><path d="M26.4543,33.2574,5.1031,20.9302a3.08838,3.08838,0,0,1,0-5.3493L26.4543,3.2537a7.44256,7.44256,0,0,1,7.4426,0L55.2482,15.5809a3.08838,3.08838,0,0,1,0,5.3493L33.8969,33.2574A7.443,7.443,0,0,1,26.4543,33.2574Z" style="fill:#29abe2;opacity:0.5"/><path d="M26.5112,33.028,5.4863,20.8893a3.04124,3.04124,0,0,1,0-5.2675L26.5112,3.4831a7.32881,7.32881,0,0,1,7.3289,0L54.8649,15.6218a3.04116,3.04116,0,0,1,0,5.2675L33.8401,33.028A7.32881,7.32881,0,0,1,26.5112,33.028Z" style="fill:#29abe2;opacity:0.5625"/><path d="M26.5681,32.7987,5.8696,20.8484a2.994,2.994,0,0,1,0-5.1857L26.5681,3.7124a7.21487,7.21487,0,0,1,7.2151,0L54.4817,15.6627a2.994,2.994,0,0,1,0,5.1857L33.7832,32.7987A7.21487,7.21487,0,0,1,26.5681,32.7987Z" style="fill:#29abe2;opacity:0.625"/><path d="M26.625,32.5694,6.2529,20.8075a2.94673,2.94673,0,0,1,0-5.1039L26.625,3.9417a7.10143,7.10143,0,0,1,7.1013,0L54.0984,15.7036a2.94673,2.94673,0,0,1,0,5.1039L33.7263,32.5694A7.10143,7.10143,0,0,1,26.625,32.5694Z" style="fill:#29abe2;opacity:0.6875"/><path d="M26.6819,32.3401,6.6362,20.7666a2.89944,2.89944,0,0,1,0-5.0221L26.6819,4.171a6.98748,6.98748,0,0,1,6.9875,0L53.7151,15.7445a2.89944,2.89944,0,0,1,0,5.0221L33.6694,32.3401A6.98748,6.98748,0,0,1,26.6819,32.3401Z" style="fill:#29abe2;opacity:0.75"/><path d="M26.7388,32.1107,7.0194,20.7258a2.85247,2.85247,0,0,1,0-4.9405L26.7388,4.4004a6.87355,6.87355,0,0,1,6.8737,0L53.3319,15.7853a2.85247,2.85247,0,0,1,0,4.9405L33.6125,32.1107A6.87355,6.87355,0,0,1,26.7388,32.1107Z" style="fill:#29abe2;opacity:0.8125"/><path d="M26.7957,31.8814,7.4027,20.6849a2.80518,2.80518,0,0,1,0-4.8587L26.7957,4.6297a6.75961,6.75961,0,0,1,6.7599,0l19.393,11.1965a2.80518,2.80518,0,0,1,0,4.8587L33.5556,31.8814A6.75961,6.75961,0,0,1,26.7957,31.8814Z" style="fill:#29abe2;opacity:0.875"/><path d="M26.8525,31.6521,7.786,20.644a2.75789,2.75789,0,0,1,0-4.7769L26.8525,4.859a6.64634,6.64634,0,0,1,6.6462,0L52.5653,15.8671a2.758,2.758,0,0,1,0,4.7769L33.4987,31.6521A6.64634,6.64634,0,0,1,26.8525,31.6521Z" style="fill:#29abe2;opacity:0.9375"/><path d="M26.9094,31.4228,8.1692,20.6031a2.71075,2.71075,0,0,1,0-4.6951L26.9094,5.0883a6.53259,6.53259,0,0,1,6.5325,0L52.182,15.908a2.71068,2.71068,0,0,1,0,4.6951L33.4419,31.4228A6.53259,6.53259,0,0,1,26.9094,31.4228Z" style="fill:#29abe2"/></g></g></g></g></svg>