<svg xmlns="http://www.w3.org/2000/svg" width="29.63919" height="48.76982" viewBox="0 0 29.63919 48.76982"><title>Asset 11</title><g id="Layer_2" data-name="Layer 2"><g id="_ÎÓÈ_1" data-name="—ÎÓÈ_1"><path d="M27.958,13.41391,4.4044.16561a.926.926,0,0,0-.839-.10842.78051.78051,0,0,0-.0846.02823A.78812.78812,0,0,0,3.39618.1136a.78066.78066,0,0,0-.0846.02818A.77435.77435,0,0,0,3.22694.17.77248.77248,0,0,0,3.1424.1982a.77514.77514,0,0,0-.08469.02823A.79045.79045,0,0,0,2.973.25466a.78.78,0,0,0-.0844.02818A.785.785,0,0,0,2.80387.311a.777.777,0,0,0-.0846.02823.7729.7729,0,0,0-.08455.02818A.78536.78536,0,0,0,2.55.39562a.7876.7876,0,0,0-.0846.02823A.77369.77369,0,0,0,2.38085.452a.774.774,0,0,0-.0846.02823.77013.77013,0,0,0-.08464.02818.77538.77538,0,0,0-.08474.02828.78428.78428,0,0,0-.08446.02813.77782.77782,0,0,0-.08464.02823.77328.77328,0,0,0-.0846.02818.784.784,0,0,0-.0846.02823.78812.78812,0,0,0-.08464.02818.76985.76985,0,0,0-.0846.02818.78051.78051,0,0,0-.0846.02823.77794.77794,0,0,0-.08464.02818.77012.77012,0,0,0-.0846.02823.78333.78333,0,0,0-.08474.02823.77783.77783,0,0,0-.08445.02818A.77527.77527,0,0,0,1.11163.8751.77744.77744,0,0,0,1.027.90333C.47787,1.05417.10027,1.80749.10027,2.9387L0,31.46251c0,1.59893.75269,3.34124,1.68115,3.89152L5.03,37.33875,10.41793,40.532l15.40269,8.07033a.9257.9257,0,0,0,.839.10842,2507286.44633,2507286.44633,0,0,0,.16909-.05636c1.68527-.67671,2.71024-.648,2.71024-2.82515l.10027-28.52381C29.63919,15.7065,28.88651,13.96424,27.958,13.41391Z" style="fill:#6baae6"/><path d="M25.92089,14.28829,1.78142,1.03994C.853.48966.10027,1.33977.10027,2.9387L0,31.46251c0,1.59893.75269,3.34124,1.68115,3.89152l3.34879,1.98472L9.42361,39.9427l16.397,8.65964c.92846.55028,1.68115-.29984,1.68115-1.89876L27.602,18.17976C27.602,16.58083,26.84935,14.83852,25.92089,14.28829Z" style="fill:#406cad"/><g id="_Group_" data-name="&lt;Group&gt;"><path id="_Compound_Path_" data-name="&lt;Compound Path&gt;" d="M4.0188,15.98634l.94088.55906.94089.55906.94088.55906.94089.55906.94088.55906.94089.55906.94088.55906.00559-1.13954.00559-1.13952.00559-1.13954.00559-1.13952.00559-1.13954.00559-1.13952.00559-1.13954L9.70327,11.364l-.94089-.55906-.94088-.55906-.94089-.55906-.94088-.55906-.94089-.55906L4.058,8.0096,4.05237,9.14914l-.00559,1.13952-.00559,1.13954-.00559,1.13952L4.03,13.70728,4.0244,14.8468,4.0188,15.98634m.94647-.58049.94089.55906L6.847,16.524l.94089.55906.94088.55906.94089.55906.00559-1.13952.00559-1.13954.00559-1.13952L9.69208,13.643l.00559-1.13952-.94089-.55906-.94088-.55906L6.875,10.82632l-.94088-.55906L4.99325,9.7082l-.00559,1.13952-.00559,1.13954-.00559,1.13952-.00559,1.13954-.00559,1.13952" style="fill:#fff;fill-rule:evenodd"/><path id="_Compound_Path_2" data-name="&lt;Compound Path&gt;" d="M15.3206,20.416l.94088.55906.00559-1.13954.00559-1.13952.00559-1.13954.00559-1.13952.00559-1.13954-.94088-.55906-.94089-.55906-.94088-.55906-.00559,1.13954-.94089-.55906-.94088-.55906-.00559,1.13952.94088.55906.94089.55906L13.45,17.01881l.94088.55906.94089.55906-.00559,1.13952L15.3206,20.416m-.92411-3.97767.94089.55906.00559-1.13952-.94089-.55906-.00559,1.13952" style="fill:#fff;fill-rule:evenodd"/><path id="_Compound_Path_3" data-name="&lt;Compound Path&gt;" d="M17.19117,23.81318l.94088.55906.94089.55907.94087.55905.94089.55906.94088.55906.94089.55906.94088.55906.00559-1.13954.00559-1.13952.00559-1.13954.00559-1.13952.00559-1.13954.00559-1.13952.00559-1.13954-.94088-.55906-.94089-.55906-.94088-.55906-.94089-.55906-.94087-.55905-.94089-.55907-.94088-.55906L17.22474,16.976l-.00559,1.13952L17.21355,19.255,17.208,20.39457l-.00559,1.13954-.00559,1.13952-.00559,1.13954m.94647-.58049.94089.55907.94087.55905.94089.55906.94088.55906.94089.55906.00559-1.13952.00559-1.13954.00559-1.13952.00559-1.13954L22.87,20.33034l-.94089-.55906-.94088-.55906-.94089-.55906-.94087-.55905-.94089-.55907L18.16,18.67456l-.00559,1.13954-.00559,1.13952-.00559,1.13954-.00559,1.13952" style="fill:#fff;fill-rule:evenodd"/><polyline id="_Path_" data-name="&lt;Path&gt;" points="5.912 14.825 6.853 15.384 7.794 15.944 8.734 16.503 8.74 15.363 8.746 14.224 8.751 13.084 7.81 12.525 6.869 11.966 5.929 11.407 5.923 12.546 5.917 13.686 5.912 14.825" style="fill:#fff;fill-rule:evenodd"/><polyline id="_Path_2" data-name="&lt;Path&gt;" points="19.084 22.652 20.025 23.211 20.966 23.77 21.907 24.329 21.912 23.19 21.918 22.05 21.924 20.911 20.983 20.352 20.042 19.793 19.101 19.234 19.095 20.373 19.09 21.513 19.084 22.652" style="fill:#fff;fill-rule:evenodd"/><polyline id="_Path_3" data-name="&lt;Path&gt;" points="12.498 18.739 13.439 19.298 13.444 18.158 13.45 17.019 12.509 16.46 11.568 15.901 11.563 17.04 12.504 17.599 12.498 18.739" style="fill:#fff;fill-rule:evenodd"/><polyline id="_Path_4" data-name="&lt;Path&gt;" points="11.546 20.459 12.487 21.018 12.492 19.878 12.498 18.739 11.557 18.18 11.551 19.319 11.546 20.459" style="fill:#fff;fill-rule:evenodd"/><polyline id="_Path_5" data-name="&lt;Path&gt;" points="14.374 20.996 15.315 21.556 15.321 20.416 14.38 19.857" style="fill:#fff;fill-rule:evenodd"/><polyline id="_Path_6" data-name="&lt;Path&gt;" points="13.428 21.577 14.369 22.136 14.374 20.996 13.433 20.437" style="fill:#fff;fill-rule:evenodd"/><polyline id="_Path_7" data-name="&lt;Path&gt;" points="15.309 22.695 16.25 23.254 16.256 22.115 15.315 21.556" style="fill:#fff;fill-rule:evenodd"/><polyline id="_Path_8" data-name="&lt;Path&gt;" points="12.481 22.157 13.422 22.716 13.428 21.577 12.487 21.018" style="fill:#fff;fill-rule:evenodd"/><polyline id="_Path_9" data-name="&lt;Path&gt;" points="4.926 23.383 5.867 23.942 6.808 24.501 6.813 23.361 7.754 23.92 7.749 25.06 8.69 25.619 8.695 24.479 8.701 23.34 7.76 22.781 7.766 21.641 6.825 21.082 6.83 19.943 7.771 20.502 7.766 21.641 8.706 22.2 8.701 23.34 9.642 23.899 10.583 24.458 11.523 25.017 12.464 25.576 12.47 24.436 11.529 23.877 10.588 23.318 9.647 22.759 9.653 21.62 8.712 21.061 8.718 19.921 7.777 19.362 6.836 18.803 5.895 18.244 4.954 17.685 4.013 17.126 4.008 18.265 4.948 18.824 5.889 19.384 5.884 20.523 4.943 19.964 4.002 19.405 3.996 20.544 3.991 21.684 4.932 22.243 4.926 23.383" style="fill:#fff;fill-rule:evenodd"/><polyline id="_Path_10" data-name="&lt;Path&gt;" points="9.653 21.62 10.594 22.179 11.535 22.738 12.476 23.297 12.481 22.157 11.54 21.598 10.599 21.039 9.659 20.48 9.653 21.62" style="fill:#fff;fill-rule:evenodd"/><path id="_Compound_Path_4" data-name="&lt;Compound Path&gt;" d="M11.50111,29.57509l.94088.55906.00559-1.13954.00559-1.13952.94089.55906.94088.55906.00559-1.13954.94089.55906-.00559,1.13954-.00559,1.13952.94088.55906.00559-1.13952.00559-1.13954.94089.55906.94088.55906-.00559,1.13954L18.09289,32.349l.94089.55907.00559-1.13952L19.045,30.629l.00559-1.13952.00559-1.13954.00559-1.13952.00559-1.13954-.94089-.55907-.00559,1.13954L17.18,26.09225l.00559-1.13954-.94089-.55906-.00559,1.13954-.94088-.55906.00559-1.13954-.94089-.55906-.00559,1.13954-.00559,1.13952.94089.55906L15.287,27.25319l-.94089-.55906.00559-1.13954-.94088-.55906-.00559,1.13954-.94089-.55906-.00559,1.13952-.94088-.55906-.94089-.55906-.94088-.55906L9.63053,26.1779l.94088.55906.94089.55906-.00559,1.13952-.00559,1.13954m4.72679-1.76284.94089.55906.00559-1.13954-.94089-.55906-.00559,1.13954" style="fill:#fff;fill-rule:evenodd"/><polyline id="_Path_11" data-name="&lt;Path&gt;" points="19.986 31.188 20.927 31.747 20.932 30.608 20.938 29.468 21.879 30.027 21.884 28.888 20.944 28.328 20.949 27.189 20.008 26.63 20.003 27.769 19.997 28.909 19.991 30.048 19.986 31.188" style="fill:#fff;fill-rule:evenodd"/><polyline id="_Path_12" data-name="&lt;Path&gt;" points="21.884 28.888 22.825 29.447 22.831 28.307 21.89 27.748" style="fill:#fff;fill-rule:evenodd"/><polyline id="_Path_13" data-name="&lt;Path&gt;" points="21.868 32.306 22.809 32.865 23.749 33.424 23.755 32.285 22.814 31.726 22.82 30.586 21.879 30.027 21.873 31.167 21.868 32.306" style="fill:#fff;fill-rule:evenodd"/><polyline id="_Path_14" data-name="&lt;Path&gt;" points="22.792 36.284 23.733 36.843 23.738 35.703 23.744 34.564 22.803 34.005 22.797 35.144 22.792 36.284" style="fill:#fff;fill-rule:evenodd"/><path id="_Compound_Path_5" data-name="&lt;Compound Path&gt;" d="M3.94047,31.9398l.94088.55906.94089.55906.94088.55906L7.704,34.176l.94088.55906.94089.55906.94088.55906.00559-1.13954.00559-1.13952.00559-1.13954.00559-1.13952.00559-1.13954.00559-1.13952.00559-1.13954-.94088-.55906L8.684,26.75836l-.94088-.55906-.94089-.55906-.94088-.55906-.94089-.55906-.94088-.55906L3.974,25.10261l-.00559,1.13952-.00559,1.13954-.00559,1.13952-.00559,1.13954-.00559,1.13952L3.94047,31.9398m.94647-.58049.94089.55906.94088.55906.94089.55906.94088.55906.94089.55906L9.597,33.0151l.00559-1.13954L9.60816,30.736l.00559-1.13954L9.61935,28.457l-.94089-.55906-.94088-.55906-.94089-.55906-.94088-.55906-.94089-.55906-.00559,1.13952-.00559,1.13954-.00559,1.13952-.00559,1.13954-.00559,1.13952" style="fill:#fff;fill-rule:evenodd"/><path id="_Compound_Path_6" data-name="&lt;Compound Path&gt;" d="M11.46754,36.41228l.94088.55906L12.414,35.8318l.00559-1.13952.94089.55906.00559-1.13954-.94089-.55906.00559-1.13952.94089.55906-.00559,1.13952.94088.55906.94089.55906-.00559,1.13954-.94089-.55906-.94088-.55906-.00559,1.13952-.00559,1.13954.94088.55906.00559-1.13954.94089.55906-.00559,1.13954.94088.55906.00559-1.13954.94089.55906.94088.55906-.00559,1.13954.94089.55907.94087.55905.94089.55906.94088.55906.00559-1.13954.00559-1.13952-.94088-.55906.00559-1.13954.94088.55906.00559-1.13952.94089.55906.00559-1.13954-.94089-.55906.00559-1.13952.00559-1.13954-.94088-.55906-.94089-.55906-.00559,1.13954-.00559,1.13952-.94087-.55905L19.017,36.32663l-.00559,1.13952.94087.55905-.00559,1.13954-.94087-.55905.00559-1.13954-.94089-.55907.00559-1.13952-.94088-.55906.00559-1.13954-.94089-.55906-.00559,1.13954-.94088-.55906.00559-1.13954-.94089-.55906.00559-1.13952.94089.55906.00559-1.13954-.94089-.55906-.94088-.55906-.00559,1.13954-.94089-.55906-.00559,1.13952-.94088-.55906-.00559,1.13954-.00559,1.13952-.00559,1.13954-.00559,1.13952-.00559,1.13954m4.7156.51623.94089.55906.00559-1.13954-.94089-.55906-.00559,1.13954" style="fill:#fff;fill-rule:evenodd"/><polyline id="_Path_15" data-name="&lt;Path&gt;" points="16.206 32.37 17.146 32.929 17.152 31.79 16.211 31.231" style="fill:#fff;fill-rule:evenodd"/><polyline id="_Path_16" data-name="&lt;Path&gt;" points="18.082 34.628 19.023 35.187 19.028 34.048 18.087 33.489" style="fill:#fff;fill-rule:evenodd"/><polyline id="_Path_17" data-name="&lt;Path&gt;" points="5.833 30.779 6.774 31.338 7.715 31.897 8.656 32.456 8.662 31.316 8.667 30.177 8.673 29.037 7.732 28.478 6.791 27.919 5.85 27.36 5.845 28.5 5.839 29.639 5.833 30.779" style="fill:#fff;fill-rule:evenodd"/><polyline id="_Path_18" data-name="&lt;Path&gt;" points="22.764 41.981 23.705 42.541 23.71 41.401 22.769 40.842" style="fill:#fff;fill-rule:evenodd"/></g></g></g></svg>