<?xml version="1.0" encoding="utf-8"?>
<!-- Generator: Adobe Illustrator 21.1.0, SVG Export Plug-In . SVG Version: 6.00 Build 0)  -->
<svg version="1.1" id="Layer_1" xmlns="http://www.w3.org/2000/svg" xmlns:xlink="http://www.w3.org/1999/xlink" x="0px" y="0px"
	 viewBox="0 0 29.6 48.8" style="enable-background:new 0 0 29.6 48.8;" xml:space="preserve">
<style type="text/css">
	.st0{clip-path:url(#SVGID_2_);fill:#6BAAE6;}
	.st1{clip-path:url(#SVGID_2_);fill:#406CAD;}
	.st2{clip-path:url(#SVGID_2_);fill-rule:evenodd;clip-rule:evenodd;fill:#FFFFFF;}
</style>
<g>
	<defs>
		<rect id="SVGID_1_" y="0" width="29.6" height="48.8"/>
	</defs>
	<clipPath id="SVGID_2_">
		<use xlink:href="#SVGID_1_"  style="overflow:visible;"/>
	</clipPath>
	<path class="st0" d="M28,13.4L4.4,0.2C4.1,0,3.8,0,3.6,0.1c0,0-0.1,0-0.1,0c0,0-0.1,0-0.1,0c0,0-0.1,0-0.1,0c0,0-0.1,0-0.1,0
		c0,0-0.1,0-0.1,0c0,0-0.1,0-0.1,0c0,0-0.1,0-0.1,0c0,0-0.1,0-0.1,0c0,0-0.1,0-0.1,0c0,0-0.1,0-0.1,0c0,0-0.1,0-0.1,0
		c0,0-0.1,0-0.1,0c0,0-0.1,0-0.1,0c0,0-0.1,0-0.1,0c0,0-0.1,0-0.1,0c0,0-0.1,0-0.1,0c0,0-0.1,0-0.1,0c0,0-0.1,0-0.1,0
		c0,0-0.1,0-0.1,0c0,0-0.1,0-0.1,0c0,0-0.1,0-0.1,0c0,0-0.1,0-0.1,0c0,0-0.1,0-0.1,0c0,0-0.1,0-0.1,0c0,0-0.1,0-0.1,0
		c0,0-0.1,0-0.1,0c0,0-0.1,0-0.1,0c0,0-0.1,0-0.1,0c0,0-0.1,0-0.1,0c0,0-0.1,0-0.1,0c-0.5,0.2-0.9,0.9-0.9,2L0,31.5
		c0,1.6,0.8,3.3,1.7,3.9l3.3,2l5.4,3.2l15.4,8.1c0.3,0.2,0.6,0.2,0.8,0.1c0,0,0.1,0,0.1,0c0,0,0.1,0,0.1,0c1.7-0.7,2.7-0.6,2.7-2.8
		l0.1-28.5C29.6,15.7,28.9,14,28,13.4"/>
	<path class="st1" d="M25.9,14.3L1.8,1C0.9,0.5,0.1,1.3,0.1,2.9L0,31.5c0,1.6,0.8,3.3,1.7,3.9l3.3,2l4.4,2.6l16.4,8.7
		c0.9,0.5,1.7-0.3,1.7-1.9l0.1-28.5C27.6,16.6,26.8,14.8,25.9,14.3"/>
	<path class="st2" d="M4,16L5,16.5l0.9,0.6l0.9,0.6l0.9,0.6l0.9,0.6l0.9,0.6l0.9,0.6l0-1.1l0-1.1l0-1.1l0-1.1l0-1.1l0-1.1l0-1.1
		l-0.9-0.6l-0.9-0.6l-0.9-0.6L6.9,9.7L5.9,9.1L5,8.6L4.1,8l0,1.1l0,1.1l0,1.1l0,1.1l0,1.1l0,1.1L4,16z M5,15.4L5.9,16l0.9,0.6
		l0.9,0.6l0.9,0.6l0.9,0.6l0-1.1l0-1.1l0-1.1l0-1.1l0-1.1l-0.9-0.6l-0.9-0.6l-0.9-0.6l-0.9-0.6L5,9.7l0,1.1L5,12l0,1.1l0,1.1L5,15.4
		"/>
	<path class="st2" d="M15.3,20.4l0.9,0.6l0-1.1l0-1.1l0-1.1l0-1.1l0-1.1l-0.9-0.6l-0.9-0.6l-0.9-0.6l0,1.1l-0.9-0.6l-0.9-0.6l0,1.1
		l0.9,0.6l0.9,0.6l0,1.1l0.9,0.6l0.9,0.6l0,1.1L15.3,20.4z M14.4,16.4l0.9,0.6l0-1.1l-0.9-0.6L14.4,16.4"/>
	<path class="st2" d="M17.2,23.8l0.9,0.6l0.9,0.6l0.9,0.6L21,26l0.9,0.6l0.9,0.6l0.9,0.6l0-1.1l0-1.1l0-1.1l0-1.1l0-1.1l0-1.1l0-1.1
		l-0.9-0.6l-0.9-0.6L21,18.1l-0.9-0.6L19.1,17l-0.9-0.6l-0.9-0.6l0,1.1l0,1.1l0,1.1l0,1.1l0,1.1l0,1.1L17.2,23.8z M18.1,23.2
		l0.9,0.6l0.9,0.6l0.9,0.6l0.9,0.6l0.9,0.6l0-1.1l0-1.1l0-1.1l0-1.1l0-1.1l-0.9-0.6L21,19.2L20,18.7l-0.9-0.6l-0.9-0.6l0,1.1l0,1.1
		l0,1.1l0,1.1L18.1,23.2"/>
	<polygon class="st2" points="5.9,14.8 6.9,15.4 7.8,15.9 8.7,16.5 8.7,15.4 8.7,14.2 8.8,13.1 7.8,12.5 6.9,12 5.9,11.4 5.9,12.5 
		5.9,13.7 	"/>
	<polygon class="st2" points="19.1,22.7 20,23.2 21,23.8 21.9,24.3 21.9,23.2 21.9,22.1 21.9,20.9 21,20.4 20,19.8 19.1,19.2 
		19.1,20.4 19.1,21.5 	"/>
	<polygon class="st2" points="12.5,18.7 13.4,19.3 13.4,18.2 13.4,17 12.5,16.5 11.6,15.9 11.6,17 12.5,17.6 	"/>
	<polygon class="st2" points="11.5,20.5 12.5,21 12.5,19.9 12.5,18.7 11.6,18.2 11.6,19.3 	"/>
	<polyline class="st2" points="14.4,21 15.3,21.6 15.3,20.4 14.4,19.9 	"/>
	<polyline class="st2" points="13.4,21.6 14.4,22.1 14.4,21 13.4,20.4 	"/>
	<polyline class="st2" points="15.3,22.7 16.3,23.3 16.3,22.1 15.3,21.6 	"/>
	<polyline class="st2" points="12.5,22.2 13.4,22.7 13.4,21.6 12.5,21 	"/>
	<polygon class="st2" points="4.9,23.4 5.9,23.9 6.8,24.5 6.8,23.4 7.8,23.9 7.7,25.1 8.7,25.6 8.7,24.5 8.7,23.3 7.8,22.8 
		7.8,21.6 6.8,21.1 6.8,19.9 7.8,20.5 7.8,21.6 8.7,22.2 8.7,23.3 9.6,23.9 10.6,24.5 11.5,25 12.5,25.6 12.5,24.4 11.5,23.9 
		10.6,23.3 9.6,22.8 9.7,21.6 8.7,21.1 8.7,19.9 7.8,19.4 6.8,18.8 5.9,18.2 5,17.7 4,17.1 4,18.3 4.9,18.8 5.9,19.4 5.9,20.5 
		4.9,20 4,19.4 4,20.5 4,21.7 4.9,22.2 	"/>
	<polygon class="st2" points="9.7,21.6 10.6,22.2 11.5,22.7 12.5,23.3 12.5,22.2 11.5,21.6 10.6,21 9.7,20.5 	"/>
	<path class="st2" d="M11.5,29.6l0.9,0.6l0-1.1l0-1.1l0.9,0.6l0.9,0.6l0-1.1l0.9,0.6l0,1.1l0,1.1l0.9,0.6l0-1.1l0-1.1l0.9,0.6
		l0.9,0.6l0,1.1l0,1.1l0.9,0.6l0-1.1l0-1.1l0-1.1l0-1.1l0-1.1l0-1.1l-0.9-0.6l0,1.1l-0.9-0.6l0-1.1l-0.9-0.6l0,1.1L15.3,25l0-1.1
		l-0.9-0.6l0,1.1l0,1.1l0.9,0.6l0,1.1l-0.9-0.6l0-1.1L13.4,25l0,1.1l-0.9-0.6l0,1.1l-0.9-0.6l-0.9-0.6L9.6,25l0,1.1l0.9,0.6l0.9,0.6
		l0,1.1L11.5,29.6z M16.2,27.8l0.9,0.6l0-1.1l-0.9-0.6L16.2,27.8"/>
	<polygon class="st2" points="20,31.2 20.9,31.7 20.9,30.6 20.9,29.5 21.9,30 21.9,28.9 20.9,28.3 20.9,27.2 20,26.6 20,27.8 
		20,28.9 20,30 	"/>
	<polyline class="st2" points="21.9,28.9 22.8,29.4 22.8,28.3 21.9,27.7 	"/>
	<polygon class="st2" points="21.9,32.3 22.8,32.9 23.7,33.4 23.8,32.3 22.8,31.7 22.8,30.6 21.9,30 21.9,31.2 	"/>
	<polygon class="st2" points="22.8,36.3 23.7,36.8 23.7,35.7 23.7,34.6 22.8,34 22.8,35.1 	"/>
	<path class="st2" d="M3.9,31.9l0.9,0.6l0.9,0.6l0.9,0.6l0.9,0.6l0.9,0.6l0.9,0.6l0.9,0.6l0-1.1l0-1.1l0-1.1l0-1.1l0-1.1l0-1.1
		l0-1.1l-0.9-0.6l-0.9-0.6l-0.9-0.6l-0.9-0.6l-0.9-0.6l-0.9-0.6L4,24l0,1.1l0,1.1l0,1.1l0,1.1l0,1.1l0,1.1L3.9,31.9z M4.9,31.4
		l0.9,0.6l0.9,0.6L7.7,33l0.9,0.6l0.9,0.6l0-1.1l0-1.1l0-1.1l0-1.1l0-1.1l-0.9-0.6l-0.9-0.6l-0.9-0.6l-0.9-0.6l-0.9-0.6l0,1.1l0,1.1
		l0,1.1l0,1.1L4.9,31.4"/>
	<path class="st2" d="M11.5,36.4l0.9,0.6l0-1.1l0-1.1l0.9,0.6l0-1.1l-0.9-0.6l0-1.1l0.9,0.6l0,1.1l0.9,0.6l0.9,0.6l0,1.1l-0.9-0.6
		l-0.9-0.6l0,1.1l0,1.1l0.9,0.6l0-1.1l0.9,0.6l0,1.1l0.9,0.6l0-1.1l0.9,0.6l0.9,0.6l0,1.1l0.9,0.6l0.9,0.6l0.9,0.6l0.9,0.6l0-1.1
		l0-1.1l-0.9-0.6l0-1.1l0.9,0.6l0-1.1l0.9,0.6l0-1.1l-0.9-0.6l0-1.1l0-1.1L20.9,34L20,33.5l0,1.1l0,1.1L19,35.2l0,1.1l0,1.1L20,38
		l0,1.1L19,38.6l0-1.1l-0.9-0.6l0-1.1l-0.9-0.6l0-1.1l-0.9-0.6l0,1.1l-0.9-0.6l0-1.1l-0.9-0.6l0-1.1l0.9,0.6l0-1.1l-0.9-0.6
		l-0.9-0.6l0,1.1l-0.9-0.6l0,1.1l-0.9-0.6l0,1.1l0,1.1l0,1.1l0,1.1L11.5,36.4z M16.2,36.9l0.9,0.6l0-1.1l-0.9-0.6L16.2,36.9"/>
	<polyline class="st2" points="16.2,32.4 17.1,32.9 17.2,31.8 16.2,31.2 	"/>
	<polyline class="st2" points="18.1,34.6 19,35.2 19,34 18.1,33.5 	"/>
	<polygon class="st2" points="5.8,30.8 6.8,31.3 7.7,31.9 8.7,32.5 8.7,31.3 8.7,30.2 8.7,29 7.7,28.5 6.8,27.9 5.9,27.4 5.8,28.5 
		5.8,29.6 	"/>
	<polyline class="st2" points="22.8,42 23.7,42.5 23.7,41.4 22.8,40.8 	"/>
</g>
</svg>
