<svg xmlns="http://www.w3.org/2000/svg" xmlns:xlink="http://www.w3.org/1999/xlink" width="64.9821" height="90.5908" viewBox="0 0 64.9821 90.5908"><defs><filter id="luminosity-noclip" x="0" y="-8256.8384" width="64.9821" height="32766" filterUnits="userSpaceOnUse" color-interpolation-filters="sRGB"><feFlood flood-color="#fff" result="bg"/><feBlend in="SourceGraphic" in2="bg"/></filter><mask id="mask" x="0" y="-8256.8384" width="64.9821" height="32766" maskUnits="userSpaceOnUse"><g style="filter:url(#luminosity-noclip)"/></mask><linearGradient id="linear-gradient" x1="213.17407" y1="86.34988" x2="213.17407" y2="1.00474" gradientTransform="matrix(-1, 0, 0, 1, 245.66512, 0)" gradientUnits="userSpaceOnUse"><stop offset="0" stop-color="#fff"/><stop offset="0.04713" stop-color="#e5e5e5"/><stop offset="0.15148" stop-color="#b0b0b0"/><stop offset="0.26012" stop-color="#818181"/><stop offset="0.37073" stop-color="#595959"/><stop offset="0.48387" stop-color="#393939"/><stop offset="0.60034" stop-color="#202020"/><stop offset="0.72146" stop-color="#0e0e0e"/><stop offset="0.85028" stop-color="#030303"/><stop offset="1"/></linearGradient><filter id="luminosity-noclip-2" x="4.8932" y="-8256.8384" width="54.8255" height="32766" filterUnits="userSpaceOnUse" color-interpolation-filters="sRGB"><feFlood flood-color="#fff" result="bg"/><feBlend in="SourceGraphic" in2="bg"/></filter><mask id="mask-2" x="4.8932" y="-8256.8384" width="54.8255" height="32766" maskUnits="userSpaceOnUse"><g style="filter:url(#luminosity-noclip-2)"/></mask><linearGradient id="linear-gradient-2" x1="213.35917" y1="86.34997" x2="213.35917" y2="1.00474" xlink:href="#linear-gradient"/><filter id="luminosity-noclip-3" x="5.8719" y="-8256.8384" width="52.7941" height="32766" filterUnits="userSpaceOnUse" color-interpolation-filters="sRGB"><feFlood flood-color="#fff" result="bg"/><feBlend in="SourceGraphic" in2="bg"/></filter><mask id="mask-3" x="5.8719" y="-8256.8384" width="52.7941" height="32766" maskUnits="userSpaceOnUse"><g style="filter:url(#luminosity-noclip-3)"/></mask><linearGradient id="linear-gradient-3" x1="213.39617" y1="86.34998" x2="213.39617" y2="1.00484" xlink:href="#linear-gradient"/><filter id="luminosity-noclip-4" x="6.8505" y="-8256.8384" width="50.76279" height="32766" filterUnits="userSpaceOnUse" color-interpolation-filters="sRGB"><feFlood flood-color="#fff" result="bg"/><feBlend in="SourceGraphic" in2="bg"/></filter><mask id="mask-4" x="6.8505" y="-8256.8384" width="50.76279" height="32766" maskUnits="userSpaceOnUse"><g style="filter:url(#luminosity-noclip-4)"/></mask><linearGradient id="linear-gradient-4" x1="213.43322" y1="86.34998" x2="213.43322" y2="1.00484" xlink:href="#linear-gradient"/><filter id="luminosity-noclip-5" x="7.8291" y="-8256.8384" width="48.7316" height="32766" filterUnits="userSpaceOnUse" color-interpolation-filters="sRGB"><feFlood flood-color="#fff" result="bg"/><feBlend in="SourceGraphic" in2="bg"/></filter><mask id="mask-5" x="7.8291" y="-8256.8384" width="48.7316" height="32766" maskUnits="userSpaceOnUse"><g style="filter:url(#luminosity-noclip-5)"/></mask><linearGradient id="linear-gradient-5" x1="213.47022" y1="86.34998" x2="213.47022" y2="1.00484" xlink:href="#linear-gradient"/><filter id="luminosity-noclip-6" x="8.8078" y="-8256.8384" width="46.7002" height="32766" filterUnits="userSpaceOnUse" color-interpolation-filters="sRGB"><feFlood flood-color="#fff" result="bg"/><feBlend in="SourceGraphic" in2="bg"/></filter><mask id="mask-6" x="8.8078" y="-8256.8384" width="46.7002" height="32766" maskUnits="userSpaceOnUse"><g style="filter:url(#luminosity-noclip-6)"/></mask><linearGradient id="linear-gradient-6" x1="213.50722" y1="86.34998" x2="213.50722" y2="1.00484" xlink:href="#linear-gradient"/><filter id="luminosity-noclip-7" x="0.9786" y="-8256.8384" width="62.9509" height="32766" filterUnits="userSpaceOnUse" color-interpolation-filters="sRGB"><feFlood flood-color="#fff" result="bg"/><feBlend in="SourceGraphic" in2="bg"/></filter><mask id="mask-7" x="0.9786" y="-8256.8384" width="62.9509" height="32766" maskUnits="userSpaceOnUse"><g style="filter:url(#luminosity-noclip-7)"/></mask><linearGradient id="linear-gradient-7" x1="213.21107" y1="86.34988" x2="213.21107" y2="1.00474" xlink:href="#linear-gradient"/><filter id="luminosity-noclip-8" x="9.7864" y="-8256.8384" width="44.6689" height="32766" filterUnits="userSpaceOnUse" color-interpolation-filters="sRGB"><feFlood flood-color="#fff" result="bg"/><feBlend in="SourceGraphic" in2="bg"/></filter><mask id="mask-8" x="9.7864" y="-8256.8384" width="44.6689" height="32766" maskUnits="userSpaceOnUse"><g style="filter:url(#luminosity-noclip-8)"/></mask><linearGradient id="linear-gradient-8" x1="213.54427" y1="86.34998" x2="213.54427" y2="1.00484" xlink:href="#linear-gradient"/><filter id="luminosity-noclip-9" x="10.7651" y="-8256.8384" width="42.6375" height="32766" filterUnits="userSpaceOnUse" color-interpolation-filters="sRGB"><feFlood flood-color="#fff" result="bg"/><feBlend in="SourceGraphic" in2="bg"/></filter><mask id="mask-9" x="10.7651" y="-8256.8384" width="42.6375" height="32766" maskUnits="userSpaceOnUse"><g style="filter:url(#luminosity-noclip-9)"/></mask><linearGradient id="linear-gradient-9" x1="213.58127" y1="86.34998" x2="213.58127" y2="1.00484" xlink:href="#linear-gradient"/><filter id="luminosity-noclip-10" x="11.7437" y="-8256.8384" width="40.6062" height="32766" filterUnits="userSpaceOnUse" color-interpolation-filters="sRGB"><feFlood flood-color="#fff" result="bg"/><feBlend in="SourceGraphic" in2="bg"/></filter><mask id="mask-10" x="11.7437" y="-8256.8384" width="40.6062" height="32766" maskUnits="userSpaceOnUse"><g style="filter:url(#luminosity-noclip-10)"/></mask><linearGradient id="linear-gradient-10" x1="213.61832" y1="86.34998" x2="213.61832" y2="1.00484" xlink:href="#linear-gradient"/><filter id="luminosity-noclip-11" x="12.7224" y="-8256.8384" width="38.5748" height="32766" filterUnits="userSpaceOnUse" color-interpolation-filters="sRGB"><feFlood flood-color="#fff" result="bg"/><feBlend in="SourceGraphic" in2="bg"/></filter><mask id="mask-11" x="12.7224" y="-8256.8384" width="38.5748" height="32766" maskUnits="userSpaceOnUse"><g style="filter:url(#luminosity-noclip-11)"/></mask><linearGradient id="linear-gradient-11" x1="213.65532" y1="86.34998" x2="213.65532" y2="1.00484" xlink:href="#linear-gradient"/><filter id="luminosity-noclip-12" x="13.701" y="-8256.8384" width="36.5435" height="32766" filterUnits="userSpaceOnUse" color-interpolation-filters="sRGB"><feFlood flood-color="#fff" result="bg"/><feBlend in="SourceGraphic" in2="bg"/></filter><mask id="mask-12" x="13.701" y="-8256.8384" width="36.5435" height="32766" maskUnits="userSpaceOnUse"><g style="filter:url(#luminosity-noclip-12)"/></mask><linearGradient id="linear-gradient-12" x1="213.69237" y1="86.34998" x2="213.69237" y2="1.00484" xlink:href="#linear-gradient"/><filter id="luminosity-noclip-13" x="14.6797" y="-8256.8384" width="34.5122" height="32766" filterUnits="userSpaceOnUse" color-interpolation-filters="sRGB"><feFlood flood-color="#fff" result="bg"/><feBlend in="SourceGraphic" in2="bg"/></filter><mask id="mask-13" x="14.6797" y="-8256.8384" width="34.5122" height="32766" maskUnits="userSpaceOnUse"><g style="filter:url(#luminosity-noclip-13)"/></mask><linearGradient id="linear-gradient-13" x1="213.72932" y1="86.34998" x2="213.72932" y2="1.00484" xlink:href="#linear-gradient"/><filter id="luminosity-noclip-14" x="15.6583" y="-8256.8384" width="32.4809" height="32766" filterUnits="userSpaceOnUse" color-interpolation-filters="sRGB"><feFlood flood-color="#fff" result="bg"/><feBlend in="SourceGraphic" in2="bg"/></filter><mask id="mask-14" x="15.6583" y="-8256.8384" width="32.4809" height="32766" maskUnits="userSpaceOnUse"><g style="filter:url(#luminosity-noclip-14)"/></mask><linearGradient id="linear-gradient-14" x1="213.76637" y1="86.34998" x2="213.76637" y2="1.00484" xlink:href="#linear-gradient"/><filter id="luminosity-noclip-15" x="1.9573" y="-8256.8384" width="60.9195" height="32766" filterUnits="userSpaceOnUse" color-interpolation-filters="sRGB"><feFlood flood-color="#fff" result="bg"/><feBlend in="SourceGraphic" in2="bg"/></filter><mask id="mask-15" x="1.9573" y="-8256.8384" width="60.9195" height="32766" maskUnits="userSpaceOnUse"><g style="filter:url(#luminosity-noclip-15)"/></mask><linearGradient id="linear-gradient-15" x1="213.24807" y1="86.34988" x2="213.24807" y2="1.00474" xlink:href="#linear-gradient"/><filter id="luminosity-noclip-16" x="2.9359" y="-8256.8384" width="58.8882" height="32766" filterUnits="userSpaceOnUse" color-interpolation-filters="sRGB"><feFlood flood-color="#fff" result="bg"/><feBlend in="SourceGraphic" in2="bg"/></filter><mask id="mask-16" x="2.9359" y="-8256.8384" width="58.8882" height="32766" maskUnits="userSpaceOnUse"><g style="filter:url(#luminosity-noclip-16)"/></mask><linearGradient id="linear-gradient-16" x1="213.28512" y1="86.34995" x2="213.28512" y2="1.00474" xlink:href="#linear-gradient"/><filter id="luminosity-noclip-17" x="3.9146" y="-8256.8384" width="56.8568" height="32766" filterUnits="userSpaceOnUse" color-interpolation-filters="sRGB"><feFlood flood-color="#fff" result="bg"/><feBlend in="SourceGraphic" in2="bg"/></filter><mask id="mask-17" x="3.9146" y="-8256.8384" width="56.8568" height="32766" maskUnits="userSpaceOnUse"><g style="filter:url(#luminosity-noclip-17)"/></mask><linearGradient id="linear-gradient-17" x1="213.32212" y1="86.34997" x2="213.32212" y2="1.00474" xlink:href="#linear-gradient"/><filter id="luminosity-noclip-18" x="0" y="0" width="64.9821" height="90.5907" filterUnits="userSpaceOnUse" color-interpolation-filters="sRGB"><feFlood flood-color="#fff" result="bg"/><feBlend in="SourceGraphic" in2="bg"/></filter><mask id="mask-18" x="0" y="0" width="64.9821" height="90.5907" maskUnits="userSpaceOnUse"><g style="mask:url(#mask);filter:url(#luminosity-noclip-18)"><path d="M64.9821,0,48.1392,80.8289a1.86676,1.86676,0,0,1-.9422,1.6319L34.1693,89.9823a4.541,4.541,0,0,1-4.5411,0L16.6005,82.4608a1.86675,1.86675,0,0,1-.9422-1.6319L0,0Z" style="mix-blend-mode:multiply;fill:url(#linear-gradient)"/></g></mask><linearGradient id="Gradiente_sem_nome_14" x1="213.17407" y1="86.34988" x2="213.17407" y2="1.00474" gradientTransform="matrix(-1, 0, 0, 1, 245.66512, 0)" gradientUnits="userSpaceOnUse"><stop offset="0" stop-color="#6cbded"/><stop offset="0.01607" stop-color="#6cbded" stop-opacity="0.96385"/><stop offset="0.12385" stop-color="#6cbded" stop-opacity="0.74048"/><stop offset="0.23596" stop-color="#6cbded" stop-opacity="0.54248"/><stop offset="0.35019" stop-color="#6cbded" stop-opacity="0.37545"/><stop offset="0.46705" stop-color="#6cbded" stop-opacity="0.23927"/><stop offset="0.5873" stop-color="#6cbded" stop-opacity="0.13382"/><stop offset="0.71236" stop-color="#6cbded" stop-opacity="0.05892"/><stop offset="0.84539" stop-color="#6cbded" stop-opacity="0.01437"/><stop offset="1" stop-color="#6cbded" stop-opacity="0"/></linearGradient><filter id="luminosity-noclip-19" x="0.9786" y="0" width="62.9509" height="90.5907" filterUnits="userSpaceOnUse" color-interpolation-filters="sRGB"><feFlood flood-color="#fff" result="bg"/><feBlend in="SourceGraphic" in2="bg"/></filter><mask id="mask-19" x="0.9786" y="0" width="62.9509" height="90.5907" maskUnits="userSpaceOnUse"><g style="mask:url(#mask-7);filter:url(#luminosity-noclip-19)"><path d="M63.9295,0,48.1392,80.8289a1.86664,1.86664,0,0,1-.9422,1.6319L34.1693,89.9823a4.541,4.541,0,0,1-4.5411,0L16.6005,82.4608a1.86664,1.86664,0,0,1-.9422-1.6319L.9786,0Z" style="mix-blend-mode:multiply;fill:url(#linear-gradient-7)"/></g></mask><linearGradient id="Gradiente_sem_nome_14-2" x1="213.21107" y1="86.34988" x2="213.21107" y2="1.00474" xlink:href="#Gradiente_sem_nome_14"/><filter id="luminosity-noclip-20" x="1.9573" y="0" width="60.9195" height="90.5907" filterUnits="userSpaceOnUse" color-interpolation-filters="sRGB"><feFlood flood-color="#fff" result="bg"/><feBlend in="SourceGraphic" in2="bg"/></filter><mask id="mask-20" x="1.9573" y="0" width="60.9195" height="90.5907" maskUnits="userSpaceOnUse"><g style="mask:url(#mask-15);filter:url(#luminosity-noclip-20)"><path d="M62.8768,0,48.1392,80.8289a1.86664,1.86664,0,0,1-.9422,1.6319L34.1693,89.9823a4.541,4.541,0,0,1-4.5411,0L16.6005,82.4608a1.86664,1.86664,0,0,1-.9422-1.6319L1.9573,0Z" style="mix-blend-mode:multiply;fill:url(#linear-gradient-15)"/></g></mask><linearGradient id="Gradiente_sem_nome_14-3" x1="213.24807" y1="86.34988" x2="213.24807" y2="1.00474" xlink:href="#Gradiente_sem_nome_14"/><filter id="luminosity-noclip-21" x="2.9359" y="0" width="58.8882" height="90.59077" filterUnits="userSpaceOnUse" color-interpolation-filters="sRGB"><feFlood flood-color="#fff" result="bg"/><feBlend in="SourceGraphic" in2="bg"/></filter><mask id="mask-21" x="2.9359" y="0" width="58.8882" height="90.59077" maskUnits="userSpaceOnUse"><g style="mask:url(#mask-16);filter:url(#luminosity-noclip-21)"><path d="M61.8241,0,48.1392,80.8289a1.86664,1.86664,0,0,1-.9422,1.6319L34.1693,89.9823a4.54056,4.54056,0,0,1-4.5411,0L16.6005,82.4608a1.86664,1.86664,0,0,1-.9422-1.6319L2.9359,0Z" style="mix-blend-mode:multiply;fill:url(#linear-gradient-16)"/></g></mask><linearGradient id="Gradiente_sem_nome_14-4" x1="213.28512" y1="86.34995" x2="213.28512" y2="1.00474" xlink:href="#Gradiente_sem_nome_14"/><filter id="luminosity-noclip-22" x="3.9146" y="0" width="56.8568" height="90.5908" filterUnits="userSpaceOnUse" color-interpolation-filters="sRGB"><feFlood flood-color="#fff" result="bg"/><feBlend in="SourceGraphic" in2="bg"/></filter><mask id="mask-22" x="3.9146" y="0" width="56.8568" height="90.5908" maskUnits="userSpaceOnUse"><g style="mask:url(#mask-17);filter:url(#luminosity-noclip-22)"><path d="M60.7714,0,48.1392,80.8289a1.86664,1.86664,0,0,1-.9422,1.6319L34.1693,89.9824a4.541,4.541,0,0,1-4.5411,0L16.6005,82.4608a1.86664,1.86664,0,0,1-.9422-1.6319L3.9146,0Z" style="mix-blend-mode:multiply;fill:url(#linear-gradient-17)"/></g></mask><linearGradient id="Gradiente_sem_nome_14-5" x1="213.32212" y1="86.34997" x2="213.32212" y2="1.00474" xlink:href="#Gradiente_sem_nome_14"/><filter id="luminosity-noclip-23" x="4.8932" y="0" width="54.8255" height="90.5908" filterUnits="userSpaceOnUse" color-interpolation-filters="sRGB"><feFlood flood-color="#fff" result="bg"/><feBlend in="SourceGraphic" in2="bg"/></filter><mask id="mask-23" x="4.8932" y="0" width="54.8255" height="90.5908" maskUnits="userSpaceOnUse"><g style="mask:url(#mask-2);filter:url(#luminosity-noclip-23)"><path d="M59.7187,0,48.1392,80.8289a1.86664,1.86664,0,0,1-.9422,1.6319L34.1693,89.9824a4.541,4.541,0,0,1-4.5411,0L16.6005,82.4608a1.86664,1.86664,0,0,1-.9422-1.6319L4.8932,0Z" style="mix-blend-mode:multiply;fill:url(#linear-gradient-2)"/></g></mask><linearGradient id="Gradiente_sem_nome_14-6" x1="213.35917" y1="86.34997" x2="213.35917" y2="1.00474" xlink:href="#Gradiente_sem_nome_14"/><filter id="luminosity-noclip-24" x="5.8719" y="0.0001" width="52.7941" height="90.5907" filterUnits="userSpaceOnUse" color-interpolation-filters="sRGB"><feFlood flood-color="#fff" result="bg"/><feBlend in="SourceGraphic" in2="bg"/></filter><mask id="mask-24" x="5.8719" y="0.0001" width="52.7941" height="90.5907" maskUnits="userSpaceOnUse"><g style="mask:url(#mask-3);filter:url(#luminosity-noclip-24)"><path d="M58.666.0001,48.1392,80.8289a1.86664,1.86664,0,0,1-.9422,1.6319L34.1693,89.9824a4.541,4.541,0,0,1-4.5411,0L16.6005,82.4608a1.86664,1.86664,0,0,1-.9422-1.6319L5.8719.0001Z" style="mix-blend-mode:multiply;fill:url(#linear-gradient-3)"/></g></mask><linearGradient id="Gradiente_sem_nome_14-7" x1="213.39617" y1="86.34998" x2="213.39617" y2="1.00484" xlink:href="#Gradiente_sem_nome_14"/><filter id="luminosity-noclip-25" x="6.8505" y="0.0001" width="50.76279" height="90.5907" filterUnits="userSpaceOnUse" color-interpolation-filters="sRGB"><feFlood flood-color="#fff" result="bg"/><feBlend in="SourceGraphic" in2="bg"/></filter><mask id="mask-25" x="6.8505" y="0.0001" width="50.76279" height="90.5907" maskUnits="userSpaceOnUse"><g style="mask:url(#mask-4);filter:url(#luminosity-noclip-25)"><path d="M57.6133.0001,48.1392,80.8289a1.86664,1.86664,0,0,1-.9422,1.6319L34.1693,89.9824a4.541,4.541,0,0,1-4.5411,0L16.6005,82.4608a1.86664,1.86664,0,0,1-.9422-1.6319L6.8505.0001Z" style="mix-blend-mode:multiply;fill:url(#linear-gradient-4)"/></g></mask><linearGradient id="Gradiente_sem_nome_14-8" x1="213.43322" y1="86.34998" x2="213.43322" y2="1.00484" xlink:href="#Gradiente_sem_nome_14"/><filter id="luminosity-noclip-26" x="7.8291" y="0.0001" width="48.7316" height="90.5907" filterUnits="userSpaceOnUse" color-interpolation-filters="sRGB"><feFlood flood-color="#fff" result="bg"/><feBlend in="SourceGraphic" in2="bg"/></filter><mask id="mask-26" x="7.8291" y="0.0001" width="48.7316" height="90.5907" maskUnits="userSpaceOnUse"><g style="mask:url(#mask-5);filter:url(#luminosity-noclip-26)"><path d="M56.5607.0001,48.1392,80.8289a1.86664,1.86664,0,0,1-.9422,1.6319L34.1693,89.9824a4.541,4.541,0,0,1-4.5411,0L16.6005,82.4608a1.86664,1.86664,0,0,1-.9422-1.6319L7.8291.0001Z" style="mix-blend-mode:multiply;fill:url(#linear-gradient-5)"/></g></mask><linearGradient id="Gradiente_sem_nome_14-9" x1="213.47022" y1="86.34998" x2="213.47022" y2="1.00484" xlink:href="#Gradiente_sem_nome_14"/><filter id="luminosity-noclip-27" x="8.8078" y="0.0001" width="46.7002" height="90.5907" filterUnits="userSpaceOnUse" color-interpolation-filters="sRGB"><feFlood flood-color="#fff" result="bg"/><feBlend in="SourceGraphic" in2="bg"/></filter><mask id="mask-27" x="8.8078" y="0.0001" width="46.7002" height="90.5907" maskUnits="userSpaceOnUse"><g style="mask:url(#mask-6);filter:url(#luminosity-noclip-27)"><path d="M55.508.0001,48.1392,80.8289a1.86691,1.86691,0,0,1-.9422,1.632L34.1693,89.9824a4.541,4.541,0,0,1-4.5411,0L16.6005,82.4609a1.86691,1.86691,0,0,1-.9422-1.632L8.8078.0001Z" style="mix-blend-mode:multiply;fill:url(#linear-gradient-6)"/></g></mask><linearGradient id="Gradiente_sem_nome_14-10" x1="213.50722" y1="86.34998" x2="213.50722" y2="1.00484" xlink:href="#Gradiente_sem_nome_14"/><filter id="luminosity-noclip-28" x="9.7864" y="0.0001" width="44.6689" height="90.5907" filterUnits="userSpaceOnUse" color-interpolation-filters="sRGB"><feFlood flood-color="#fff" result="bg"/><feBlend in="SourceGraphic" in2="bg"/></filter><mask id="mask-28" x="9.7864" y="0.0001" width="44.6689" height="90.5907" maskUnits="userSpaceOnUse"><g style="mask:url(#mask-8);filter:url(#luminosity-noclip-28)"><path d="M54.4553.0001,48.1392,80.8289a1.86691,1.86691,0,0,1-.9422,1.632L34.1693,89.9824a4.541,4.541,0,0,1-4.5411,0L16.6005,82.4609a1.86691,1.86691,0,0,1-.9422-1.632L9.7864.0001Z" style="mix-blend-mode:multiply;fill:url(#linear-gradient-8)"/></g></mask><linearGradient id="Gradiente_sem_nome_14-11" x1="213.54427" y1="86.34998" x2="213.54427" y2="1.00484" xlink:href="#Gradiente_sem_nome_14"/><filter id="luminosity-noclip-29" x="10.7651" y="0.0001" width="42.6375" height="90.5907" filterUnits="userSpaceOnUse" color-interpolation-filters="sRGB"><feFlood flood-color="#fff" result="bg"/><feBlend in="SourceGraphic" in2="bg"/></filter><mask id="mask-29" x="10.7651" y="0.0001" width="42.6375" height="90.5907" maskUnits="userSpaceOnUse"><g style="mask:url(#mask-9);filter:url(#luminosity-noclip-29)"><path d="M53.4026.0001,48.1392,80.8289a1.86691,1.86691,0,0,1-.9422,1.632L34.1693,89.9824a4.541,4.541,0,0,1-4.5411,0L16.6005,82.4609a1.86691,1.86691,0,0,1-.9422-1.632L10.7651.0001Z" style="mix-blend-mode:multiply;fill:url(#linear-gradient-9)"/></g></mask><linearGradient id="Gradiente_sem_nome_14-12" x1="213.58127" y1="86.34998" x2="213.58127" y2="1.00484" xlink:href="#Gradiente_sem_nome_14"/><filter id="luminosity-noclip-30" x="11.7437" y="0.0001" width="40.6062" height="90.5907" filterUnits="userSpaceOnUse" color-interpolation-filters="sRGB"><feFlood flood-color="#fff" result="bg"/><feBlend in="SourceGraphic" in2="bg"/></filter><mask id="mask-30" x="11.7437" y="0.0001" width="40.6062" height="90.5907" maskUnits="userSpaceOnUse"><g style="mask:url(#mask-10);filter:url(#luminosity-noclip-30)"><path d="M52.3499.0001,48.1392,80.8289a1.86691,1.86691,0,0,1-.9422,1.632L34.1693,89.9824a4.541,4.541,0,0,1-4.5411,0L16.6005,82.4609a1.86691,1.86691,0,0,1-.9422-1.632L11.7437.0001Z" style="mix-blend-mode:multiply;fill:url(#linear-gradient-10)"/></g></mask><linearGradient id="Gradiente_sem_nome_14-13" x1="213.61832" y1="86.34998" x2="213.61832" y2="1.00484" xlink:href="#Gradiente_sem_nome_14"/><filter id="luminosity-noclip-31" x="12.7224" y="0.0001" width="38.5748" height="90.5907" filterUnits="userSpaceOnUse" color-interpolation-filters="sRGB"><feFlood flood-color="#fff" result="bg"/><feBlend in="SourceGraphic" in2="bg"/></filter><mask id="mask-31" x="12.7224" y="0.0001" width="38.5748" height="90.5907" maskUnits="userSpaceOnUse"><g style="mask:url(#mask-11);filter:url(#luminosity-noclip-31)"><path d="M51.2972.0001l-3.158,80.8288a1.86691,1.86691,0,0,1-.9422,1.632L34.1693,89.9824a4.541,4.541,0,0,1-4.5411,0L16.6005,82.4609a1.86691,1.86691,0,0,1-.9422-1.632L12.7224.0001Z" style="mix-blend-mode:multiply;fill:url(#linear-gradient-11)"/></g></mask><linearGradient id="Gradiente_sem_nome_14-14" x1="213.65532" y1="86.34998" x2="213.65532" y2="1.00484" xlink:href="#Gradiente_sem_nome_14"/><filter id="luminosity-noclip-32" x="13.701" y="0.0001" width="36.5435" height="90.5907" filterUnits="userSpaceOnUse" color-interpolation-filters="sRGB"><feFlood flood-color="#fff" result="bg"/><feBlend in="SourceGraphic" in2="bg"/></filter><mask id="mask-32" x="13.701" y="0.0001" width="36.5435" height="90.5907" maskUnits="userSpaceOnUse"><g style="mask:url(#mask-12);filter:url(#luminosity-noclip-32)"><path d="M50.2445.0001,48.1392,80.8289a1.86691,1.86691,0,0,1-.9422,1.632L34.1693,89.9824a4.541,4.541,0,0,1-4.5411,0L16.6005,82.4609a1.86691,1.86691,0,0,1-.9422-1.632L13.701.0001Z" style="mix-blend-mode:multiply;fill:url(#linear-gradient-12)"/></g></mask><linearGradient id="Gradiente_sem_nome_14-15" x1="213.69237" y1="86.34998" x2="213.69237" y2="1.00484" xlink:href="#Gradiente_sem_nome_14"/><filter id="luminosity-noclip-33" x="14.6797" y="0.0001" width="34.5122" height="90.5907" filterUnits="userSpaceOnUse" color-interpolation-filters="sRGB"><feFlood flood-color="#fff" result="bg"/><feBlend in="SourceGraphic" in2="bg"/></filter><mask id="mask-33" x="14.6797" y="0.0001" width="34.5122" height="90.5907" maskUnits="userSpaceOnUse"><g style="mask:url(#mask-13);filter:url(#luminosity-noclip-33)"><path d="M49.1919.0001,48.1392,80.8289a1.86691,1.86691,0,0,1-.9422,1.632L34.1693,89.9824a4.541,4.541,0,0,1-4.5411,0L16.6005,82.4609a1.86691,1.86691,0,0,1-.9422-1.632L14.6797.0001Z" style="mix-blend-mode:multiply;fill:url(#linear-gradient-13)"/></g></mask><linearGradient id="Gradiente_sem_nome_14-16" x1="213.72932" y1="86.34998" x2="213.72932" y2="1.00484" xlink:href="#Gradiente_sem_nome_14"/><filter id="luminosity-noclip-34" x="15.6583" y="0.0001" width="32.4809" height="90.5907" filterUnits="userSpaceOnUse" color-interpolation-filters="sRGB"><feFlood flood-color="#fff" result="bg"/><feBlend in="SourceGraphic" in2="bg"/></filter><mask id="mask-34" x="15.6583" y="0.0001" width="32.4809" height="90.5907" maskUnits="userSpaceOnUse"><g style="mask:url(#mask-14);filter:url(#luminosity-noclip-34)"><path d="M48.1392.0001V80.8289a1.86691,1.86691,0,0,1-.9422,1.632L34.1693,89.9824a4.541,4.541,0,0,1-4.5411,0L16.6005,82.4609a1.86691,1.86691,0,0,1-.9422-1.632V.0001Z" style="mix-blend-mode:multiply;fill:url(#linear-gradient-14)"/></g></mask><linearGradient id="Gradiente_sem_nome_14-17" x1="213.76637" y1="86.34998" x2="213.76637" y2="1.00484" xlink:href="#Gradiente_sem_nome_14"/></defs><title>Asset 9</title><g id="Layer_2" data-name="Layer 2"><g id="_ÎÓÈ_1" data-name="—ÎÓÈ_1"><g style="mask:url(#mask-18)"><path d="M64.9821,0,48.1392,80.8289a1.86676,1.86676,0,0,1-.9422,1.6319L34.1693,89.9823a4.541,4.541,0,0,1-4.5411,0L16.6005,82.4608a1.86675,1.86675,0,0,1-.9422-1.6319L0,0Z" style="fill:url(#Gradiente_sem_nome_14)"/></g><g style="mask:url(#mask-19)"><path d="M63.9295,0,48.1392,80.8289a1.86664,1.86664,0,0,1-.9422,1.6319L34.1693,89.9823a4.541,4.541,0,0,1-4.5411,0L16.6005,82.4608a1.86664,1.86664,0,0,1-.9422-1.6319L.9786,0Z" style="fill:url(#Gradiente_sem_nome_14-2)"/></g><g style="mask:url(#mask-20)"><path d="M62.8768,0,48.1392,80.8289a1.86664,1.86664,0,0,1-.9422,1.6319L34.1693,89.9823a4.541,4.541,0,0,1-4.5411,0L16.6005,82.4608a1.86664,1.86664,0,0,1-.9422-1.6319L1.9573,0Z" style="fill:url(#Gradiente_sem_nome_14-3)"/></g><g style="mask:url(#mask-21)"><path d="M61.8241,0,48.1392,80.8289a1.86664,1.86664,0,0,1-.9422,1.6319L34.1693,89.9823a4.54056,4.54056,0,0,1-4.5411,0L16.6005,82.4608a1.86664,1.86664,0,0,1-.9422-1.6319L2.9359,0Z" style="fill:url(#Gradiente_sem_nome_14-4)"/></g><g style="mask:url(#mask-22)"><path d="M60.7714,0,48.1392,80.8289a1.86664,1.86664,0,0,1-.9422,1.6319L34.1693,89.9824a4.541,4.541,0,0,1-4.5411,0L16.6005,82.4608a1.86664,1.86664,0,0,1-.9422-1.6319L3.9146,0Z" style="fill:url(#Gradiente_sem_nome_14-5)"/></g><g style="mask:url(#mask-23)"><path d="M59.7187,0,48.1392,80.8289a1.86664,1.86664,0,0,1-.9422,1.6319L34.1693,89.9824a4.541,4.541,0,0,1-4.5411,0L16.6005,82.4608a1.86664,1.86664,0,0,1-.9422-1.6319L4.8932,0Z" style="fill:url(#Gradiente_sem_nome_14-6)"/></g><g style="mask:url(#mask-24)"><path d="M58.666.0001,48.1392,80.8289a1.86664,1.86664,0,0,1-.9422,1.6319L34.1693,89.9824a4.541,4.541,0,0,1-4.5411,0L16.6005,82.4608a1.86664,1.86664,0,0,1-.9422-1.6319L5.8719.0001Z" style="fill:url(#Gradiente_sem_nome_14-7)"/></g><g style="mask:url(#mask-25)"><path d="M57.6133.0001,48.1392,80.8289a1.86664,1.86664,0,0,1-.9422,1.6319L34.1693,89.9824a4.541,4.541,0,0,1-4.5411,0L16.6005,82.4608a1.86664,1.86664,0,0,1-.9422-1.6319L6.8505.0001Z" style="fill:url(#Gradiente_sem_nome_14-8)"/></g><g style="mask:url(#mask-26)"><path d="M56.5607.0001,48.1392,80.8289a1.86664,1.86664,0,0,1-.9422,1.6319L34.1693,89.9824a4.541,4.541,0,0,1-4.5411,0L16.6005,82.4608a1.86664,1.86664,0,0,1-.9422-1.6319L7.8291.0001Z" style="fill:url(#Gradiente_sem_nome_14-9)"/></g><g style="mask:url(#mask-27)"><path d="M55.508.0001,48.1392,80.8289a1.86691,1.86691,0,0,1-.9422,1.632L34.1693,89.9824a4.541,4.541,0,0,1-4.5411,0L16.6005,82.4609a1.86691,1.86691,0,0,1-.9422-1.632L8.8078.0001Z" style="fill:url(#Gradiente_sem_nome_14-10)"/></g><g style="mask:url(#mask-28)"><path d="M54.4553.0001,48.1392,80.8289a1.86691,1.86691,0,0,1-.9422,1.632L34.1693,89.9824a4.541,4.541,0,0,1-4.5411,0L16.6005,82.4609a1.86691,1.86691,0,0,1-.9422-1.632L9.7864.0001Z" style="fill:url(#Gradiente_sem_nome_14-11)"/></g><g style="mask:url(#mask-29)"><path d="M53.4026.0001,48.1392,80.8289a1.86691,1.86691,0,0,1-.9422,1.632L34.1693,89.9824a4.541,4.541,0,0,1-4.5411,0L16.6005,82.4609a1.86691,1.86691,0,0,1-.9422-1.632L10.7651.0001Z" style="fill:url(#Gradiente_sem_nome_14-12)"/></g><g style="mask:url(#mask-30)"><path d="M52.3499.0001,48.1392,80.8289a1.86691,1.86691,0,0,1-.9422,1.632L34.1693,89.9824a4.541,4.541,0,0,1-4.5411,0L16.6005,82.4609a1.86691,1.86691,0,0,1-.9422-1.632L11.7437.0001Z" style="fill:url(#Gradiente_sem_nome_14-13)"/></g><g style="mask:url(#mask-31)"><path d="M51.2972.0001l-3.158,80.8288a1.86691,1.86691,0,0,1-.9422,1.632L34.1693,89.9824a4.541,4.541,0,0,1-4.5411,0L16.6005,82.4609a1.86691,1.86691,0,0,1-.9422-1.632L12.7224.0001Z" style="fill:url(#Gradiente_sem_nome_14-14)"/></g><g style="mask:url(#mask-32)"><path d="M50.2445.0001,48.1392,80.8289a1.86691,1.86691,0,0,1-.9422,1.632L34.1693,89.9824a4.541,4.541,0,0,1-4.5411,0L16.6005,82.4609a1.86691,1.86691,0,0,1-.9422-1.632L13.701.0001Z" style="fill:url(#Gradiente_sem_nome_14-15)"/></g><g style="mask:url(#mask-33)"><path d="M49.1919.0001,48.1392,80.8289a1.86691,1.86691,0,0,1-.9422,1.632L34.1693,89.9824a4.541,4.541,0,0,1-4.5411,0L16.6005,82.4609a1.86691,1.86691,0,0,1-.9422-1.632L14.6797.0001Z" style="fill:url(#Gradiente_sem_nome_14-16)"/></g><g style="mask:url(#mask-34)"><path d="M48.1392.0001V80.8289a1.86691,1.86691,0,0,1-.9422,1.632L34.1693,89.9824a4.541,4.541,0,0,1-4.5411,0L16.6005,82.4609a1.86691,1.86691,0,0,1-.9422-1.632V.0001Z" style="fill:url(#Gradiente_sem_nome_14-17)"/></g></g></g></svg>