<svg xmlns="http://www.w3.org/2000/svg" width="43.9353" height="56.96152" viewBox="0 0 43.9353 56.96152"><title>111</title><g id="Layer_2" data-name="Layer 2"><g id="_ÎÓÈ_1" data-name="—ÎÓÈ_1"><path d="M19.4037,7.17c.04148-.00431.07865-.00839.11111-.0121L19.5314,7.156l.07911-.00952.01219-.00159.04579-.006,4.65836-2.70712-.04579.00594-.01219.00159-.07911.00957-.01659.0019c-.03237.00372-.06981.00784-.11111.0121l-.0214.00222q-.06528.00666-.14416.01383l-.03006.00267-.10118.00852L23.73,4.49294c-.04692.00372-.096.00739-.14806.011l-.01931.00127c-.04547.00313-.09311.00617-.1423.00911l-.05322.00308c-.04456.00254-.09076.005-.13822.00734l-.0461.00236q-.094.00442-.1952.00825l-.04393.0015q-.08235.003-.16932.00535l-.06623.00172q-.09261.00231-.19017.0039l-.04152.00073c-.07861.00113-.15989.00186-.24312.00222-.02969.00014-.06029.00009-.09062.00009-.03953,0-.07906,0-.11959-.00009L21.92259,4.55l-.12226-.00118L21.69167,4.547l-.12417-.00231-.11211-.00277-.1316-.00367-.116-.00385-.13446-.005-.1219-.00517-.13976-.00648-.12616-.00648-.1418-.00789-.133-.008-.146-.00957-.1151-.008q-.20617-.01469-.421-.03287l-.0753-.00662c-.14624-.01278-.29489-.02656-.44711-.042l-.01967-.00195c-.155-.01582-.31411-.03355-.47522-.0524l-.08912-.01043q-.23562-.02815-.47957-.06084L18.03484,4.256q-.17625-.02414-.35658-.05077l-.09234-.01355q-.219-.033-.444-.06977L17.03508,4.104q-.18591-.03094-.37572-.0646L16.54408,4.019q-.23371-.04223-.473-.08853l-.10576-.021q-.16442-.03237-.33138-.06673l-.1501-.03142q-.15415-.0325-.31062-.06682c-.04932-.01083-.09855-.02153-.14819-.03264q-.18693-.04175-.377-.08627L14.565,3.60638q-.23038-.0544-.46525-.113L14.029,3.47546q-.42091-.10567-.85547-.22485l-.09311-.02575q-.42832-.11866-.86925-.2511l-.09048-.02715q-.39868-.1209-.80746-.25386L11.21834,2.662q-.41248-.13518-.8348-.28324l-.09325-.0325q-.38365-.13539-.77528-.28206l-.11868-.04438q-.38766-.1462-.78266-.30368l-.13219-.0529q-.36923-.14844-.74418-.30654c-.0403-.017-.08087-.03454-.12126-.05172-.261-.11111-.52359-.225-.78874-.34357L6.79144.94514Q6.43187.78391,6.067.61249C6.02174.59132,5.97668.57042,5.93135.549Q5.56552.3763,5.19479.19361C5.065.1297,4.93526.06573,4.80466,0L.1463,2.70712q.16408.08262.32721.16324l.063.03042q.37046.18244.7362.35522c.0456.02153.09094.04257.13645.06387q.3642.17054.724.33238l.02792.01283.008.00349c.26551.11877.52839.23274.78978.344l.11945.051q.37556.15864.74495.30686l.06623.02729.06591.02557q.3948.15728.78266.30368l.11868.04438q.39126.14633.77532.2821l.03586.01306.05735.01945q.42207.14783.8348.28319l.09493.03078q.40847.1328.80746.25382l.03935.01242.05113.01473q.44084.1326.86925.25114l.09311.0257q.43438.1192.85551.22485l.03772.00993.03291.008q.23473.05841.46525.113l.08328.01922q.18972.0444.37662.08618c.04987.01115.09923.02194.14878.03278q.15619.03427.31021.06673l.15019.03142q.1668.03441.33075.06664l.08464.017.02185.00413q.23942.04644.47282.08844l.11528.02044q.18985.03366.37572.06464l.1068.01782q.22542.03686.445.06995l.08881.013q.18264.027.36094.05145l.06537.00929.03953.005q.245.03284.48157.06106l.08695.0102c.16156.01886.321.03667.47649.05254l.01958.0019c.15282.0155.30191.02938.4487.0422l.07289.00639q.21562.01836.422.033L15.529,7.188l.07734.005q.07357.005.146.00952l.13305.008.14166.00793.12634.00644.13958.00648.12208.00517.13427.005.1161.0039.13146.00367.11224.00272.12407.00236.10871.00172.12222.00122.10059.00073c.04053.00018.08.00014.11959.00014.02348,0,.04787.00014.071,0l.01958-.00018q.12491-.00048.24316-.00218l.04139-.00077q.09758-.00156.19026-.00385l.06628-.00172q.0869-.00245.16927-.00535l.04393-.0015q.10125-.00381.19525-.0083l.04606-.00231q.07126-.00354.13822-.00734l.05322-.00308c.04928-.00295.09683-.006.1423-.00911l.01931-.00127c.05213-.00363.10109-.0073.14806-.011l.03527-.0029.10114-.00852.01986-.00168.01025-.001c.05268-.00481.10055-.00943.14411-.01387Z" style="fill:#609df8"/><path d="M43.91073,27.60927c.00286-.09583.00544-.1904.00775-.28423.00163-.065.00326-.12979.00458-.19375.002-.09583.00367-.18981.00517-.28337.00091-.05843.002-.11728.00267-.1748.00127-.10009.002-.19769.00277-.295.00027-.0389.00091-.0796.00109-.11809,0-.00866,0-.01664,0-.02525q.001-.23079.00009-.45024l-.00068-.09787c-.00068-.11256-.00163-.22317-.00295-.33088l-.002-.14135q-.00211-.13906-.00481-.27209l-.00277-.12988c-.00227-.0971-.00476-.19108-.00739-.283l-.00177-.067-.00082-.02539-.002-.062q-.00347-.10887-.00725-.21229l-.00267-.07212c-.00313-.08115-.00626-.16039-.00957-.23609l-.00032-.00762c-.00349-.07951-.007-.15495-.01061-.22825l-.00286-.05694-.0087-.16719-.00222-.04107q-.00537-.09676-.01065-.18382l-.00218-.03527-.00512-.08337-.00227-.034-.007-.10553-.00435-.06365-.00639-.08971-.00372-.05132-.00567-.07444-.00277-.03645-.00607-.07679-4.65836,2.70716.00607.07679.00277.0364.00567.07448.00372.05132.00639.08971.00426.06224.00725.10966.00671.10662.00286.046c.0034.05635.00685.11592.01029.17834l.00272.05009.00816.15644.00322.06451c.00354.0724.00707.14683.01047.22521l.00032.00757c.00326.07571.00648.155.00957.23618l.00267.072q.00381.10343.0073.21247l.002.06179.00258.09261c.00267.0918.00512.18582.00739.28278l.00277.12992c.00181.08862.0034.17947.00481.272l.002.14139c.00131.10762.00227.21832.00295.33084l.00068.09787q.001.2193-.00009.45029l-.00109.14325c-.00068.09728-.0015.195-.00272.29507-.00073.05744-.00181.11637-.00272.17471-.0015.09352-.00313.18768-.00517.28346-.00136.06387-.00295.12879-.00458.19366q-.00347.14076-.00775.28437-.00306.10084-.00653.20313c-.00326.09683-.00694.19493-.01083.29362-.00281.0714-.00562.1428-.00875.21515-.00367.08464-.0078.1704-.01192.25626-.00376.07833-.00753.15667-.01174.236-.00458.08745-.0097.176-.01482.2647-.00458.07979-.00916.15943-.01419.24017-.00562.09048-.01188.18219-.018.27385-.00549.081-.01083.16188-.01677.24375-.00675.0937-.01423.18858-.02158.28333-.00644.08273-.01269.16515-.01958.24869-.00671.08092-.01405.16288-.02117.24452-.00811.0927-.01618.18523-.02489.27879-.00771.08269-.016.16623-.02421.2496-.00925.09438-.0185.18867-.02838.28387-.00879.08468-.01822.17013-.02756.2554-.01034.09479-.02067.18953-.03169.28505-.01.087-.02067.17467-.03123.26229q-.01489.12355-.03046.24779-.05705.45267-.12466.9149l-.02285.1544q-.06922.46266-.14955.93281c-.00866.0505-.01768.10118-.02652.15177q-.08153.46559-.17412.93639c-.00707.03554-.01469.07126-.02185.10685q-.09819.48809-.20907.98009l-.0049.02217c-.07362.32317-.153.64744-.236.97193-.01151.04488-.02253.08971-.03418.13464q-.12111.46593-.25635.93226c-.0228.07883-.04547.15771-.06886.2365q-.03672.12362-.07439.2472-.05039.1649-.10263.32961c-.02579.0816-.05168.16315-.0782.24466q-.05426.1668-.11079.33328c-.02684.07956-.05349.15916-.081.23858-.03967.11465-.08069.229-.12176.34326-.02706.07534-.05367.15082-.08137.226-.03876.10522-.07915.21-.11913.31488-.03427.0898-.06791.17979-.103.26932-.0413.10522-.08436.20984-.12693.31465-.03577.088-.07076.17616-.10739.26383-.04474.107-.09139.21324-.13749.31973-.03663.08459-.0724.1695-.10989.25377-.04855.109-.09914.21719-.14919.32562-.0374.0811-.07385.16261-.11211.24334-.02326.04914-.048.09765-.07158.14665-.07629.15844-.15359.31642-.23328.47332-.0374.07362-.07616.14656-.11433.21982-.06841.13146-.13749.26257-.20835.39281-.043.079-.0869.15753-.13083.236q-.10424.18645-.21184.371-.069.11811-.13917.2355-.11172.18618-.22752.36987c-.05009.07992-.09964.16011-.15078.23936-.03858.05979-.07793.11909-.11714.17852q-.10553.16-.214.31828-.06188.09023-.12466.18-.11356.16184-.2307.32136c-.03917.05358-.07784.10748-.11755.16066q-.15245.20427-.31044.40464c-.01668.02117-.03268.04279-.04946.06392q-.18319.23065-.37413.45577c-.03812.04506-.07743.08921-.116.134q-.1362.158-.27576.31356c-.04823.05349-.09724.1063-.14611.15925q-.13124.14212-.26574.2817-.07643.07929-.15368.15789-.142.14368-.288.28414c-.04715.04556-.0937.09166-.14139.13677q-.20066.18972-.408.3739l-.03432.03114q-.22494.19842-.45863.38954c-.04819.03958-.09769.078-.14638.11714-.10939.08781-.21959.17489-.33165.26034-.0592.0452-.11922.08962-.1792.13414q-.15925.11811-.32209.2331c-.06161.04347-.1233.08695-.18573.12974-.11614.0796-.23414.15753-.353.23469-.05535.03586-.10993.07244-.16583.1078-.175.11066-.35228.21927-.5332.3244l4.65836-2.70712c.18092-.10513.35813-.21374.53315-.3244.05594-.03536.11052-.07194.16583-.10785.11886-.07716.23686-.155.353-.23469.06242-.04279.12407-.08622.18573-.12974q.16286-.11492.32209-.2331c.06-.04447.12-.08894.1792-.13409.11206-.0855.22226-.17258.33161-.26039.04873-.03912.09824-.07756.14642-.11714q.23324-.19155.45881-.38963l.03282-.02987q.20821-.18462.40935-.37508c.04769-.04511.09425-.09116.14139-.13677q.14559-.14076.288-.2841.07752-.07847.15372-.15794.13464-.1396.26587-.28183c.04878-.05281.09765-.10553.14579-.15889q.14021-.15544.27621-.31411c.03849-.04461.0777-.08867.11573-.13359q.19067-.22548.37431-.456c.01627-.02044.03173-.04139.04792-.06192q.15864-.20148.312-.40663c.03953-.053.078-.10667.117-.16q.117-.16.23106-.32186.06269-.08942.12435-.17956.10887-.15871.21465-.31928c.03894-.05907.07806-.118.11641-.17748.0189-.02928.03862-.05807.05735-.08745.03228-.05046.06233-.10227.09416-.153.07666-.12231.15259-.245.2268-.36873q.07065-.11771.13967-.23641.10757-.18421.21152-.37037c.044-.07861.0879-.15717.13092-.23627.07081-.13006.13981-.261.20817-.39235.03826-.07344.07711-.14656.11465-.22041.07929-.15617.15622-.31338.23215-.47109.02049-.04248.04234-.08432.06256-.12693l.0102-.02212c.03785-.07988.07389-.16052.11093-.24076.05036-.10916.10132-.21809.15019-.32784.0374-.084.07308-.16868.10957-.253.04624-.10676.093-.21333.13786-.32059.03654-.08745.07144-.17539.10712-.26311.04266-.105.08577-.20984.12716-.31524.03513-.08953.06877-.17947.103-.26932.03268-.08581.06655-.17131.09842-.25731l.02072-.05753c.0277-.07521.05426-.15064.08137-.226.04107-.11433.0821-.22866.12176-.3433.02747-.07933.05408-.1588.08087-.23827q.0563-.1668.111-.33383c.02647-.08137.05231-.16279.07811-.24425q.05222-.1649.10268-.32988.03767-.12342.0743-.24684c.01455-.049.03-.098.04424-.147.00875-.03.01609-.05993.02475-.08989q.13471-.46606.25626-.93208c.0117-.045.02271-.0898.03423-.13473.083-.32435.16234-.64839.236-.97138l.00131-.00553.004-.01868q.11152-.491.20862-.97823c.00721-.03572.01487-.07153.02194-.10726q.09336-.47089.17412-.93625c.00494-.02842.011-.05735.01591-.08572l.01061-.066q.08051-.47007.14955-.93285l.02285-.1544q.06745-.46178.12466-.91476l.00766-.05626c.008-.06442.0151-.12784.02285-.192.01056-.08745.02117-.17494.03114-.26179.011-.0957.0214-.19058.03178-.28555.00929-.08518.01872-.1704.02747-.2549.01-.09579.01927-.19067.0286-.28559.00807-.08246.01632-.16506.02394-.24684.00889-.09538.017-.18963.0253-.28405.007-.07983.01419-.15993.02072-.23913l.00544-.06283c.00521-.064.00957-.12639.01446-.18985.0073-.09384.01469-.18777.0214-.28047.00594-.082.01129-.16283.01677-.244.00617-.09166.01242-.18332.018-.27381.005-.08078.00957-.16039.01419-.24022.00512-.08867.01025-.1772.01482-.2647.00417-.07938.008-.15762.01174-.236.00413-.086.00825-.17163.01192-.25631l.004-.08622c.00186-.0437.003-.08559.00476-.12893q.00585-.1481.01083-.29353Q43.90767,27.71013,43.91073,27.60927Z" style="fill:#3a6295"/><path d="M39.15087,25.22641A88.51674,88.51674,0,0,1,19.66848,7.13886c-.42372.05657-8.47472,1.131-19.52219-4.43174C.01551,4.09434-2.46957,30.4512,19.52727,56.96152,41.60113,55.89544,39.27336,26.75987,39.15087,25.22641Z" style="fill:#fff"/><path d="M43.80923,22.51925q-.59635-.38827-1.18023-.78878l-.12058-.08282q-.40956-.28151-.81313-.56774l-.10735-.0767q-.41649-.297-.8265-.598l-.04424-.03282q-.47082-.347-.93226-.69871l-.05109-.03921q-.4562-.34843-.90289-.70052l-.05313-.0422q-.482-.38072-.95216-.76449l-.09338-.07648q-.4528-.37052-.894-.74255l-.09325-.07861q-.514-.43451-1.01223-.86907l-.00236-.00213q-.498-.43472-.97809-.86753l-.12258-.11057q-.18543-.16755-.36814-.33451l-.1287-.11746q-.23936-.21957-.47431-.438l-.08491-.07947q-.19454-.18142-.38582-.36193-.07283-.06868-.145-.13722-.17176-.16272-.34067-.32449l-.1195-.11433q-.23684-.22759-.4681-.45287l-.09615-.094q-.1908-.18638-.37766-.371l-.11886-.1175q-.22521-.22331-.44507-.44385l-.02965-.02987q-.2059-.207-.406-.4108l-.11084-.113c-.15091-.154-.30033-.30717-.44648-.45831l-.00852-.00889q-.21794-.22542-.42794-.4458l-.09633-.101q-.20937-.21991-.41194-.43524l-.04044-.04316q-.18577-.19788-.36484-.39081L28.646,9.46219q-.2057-.22208-.40287-.43764l-.06968-.07634c-.13106-.14361-.25989-.28537-.38492-.424l-.01632-.018c-.12856-.14262-.253-.2817-.375-.41869l-.06764-.076q-.17537-.1974-.34158-.3865l-.0549-.06265c-.126-.1437-.24865-.28428-.36624-.42005l-.03278-.03794c-.122-.14107-.24022-.27843-.35282-.41026l-.00739-.0087q-.1702-.1993-.32544-.38347L25.82912,6.279c-.10009-.11877-.19484-.232-.28555-.34085l-.0374-.04483-.12208-.14724L25.344,5.6977c-.05331-.06455-.10485-.1272-.15422-.18736l-.00766-.00943q-.0682-.08309-.1311-.16039l-.0437-.05381L24.921,5.18036l-.04456-.05521-.07-.0869-.04678-.0583-.0588-.07344-.04021-.05036-.05639-.07095-.03069-.03867-.05426-.06868-.02108-.0267-.03327-.04239L24.43687,4.573,24.414,4.54376l-.02389-.0306-.02548-.03273-.03781-.04869L19.66848,7.13886l.03781.04869.02557.03287.01079.01383.03817.04887.016.02044.043.05481.00385.00485.01646.02085.05549.07022.02906.03663.05857.07371.03649.04565.06387.07983.04361.05435.06931.086.04783.05925.077.09488.05327.06555.10109.12371.03853.04715q.07133.087.14833.1802l.05481.06619.10993.13255.01763.02126.021.025c.09048.10866.18491.22145.28473.3399l.01936.02289q.15578.18475.32589.38406l.00675.00793c.1122.13137.23.26828.35155.40876l.035.04057c.11759.13582.24013.27626.36615.42l.032.03663.022.02493q.16558.18842.34063.38542l.07049.07915c.12149.13645.24525.2749.37322.41683l.01664.01836c.12471.13831.25314.27966.38383.42282l.07072.07752q.1972.21556.40332.43809l.03568.0388.05159.05521q.17911.19284.3642.39018l.04089.04366q.20087.21365.40967.43288l.10073.10562c.13976.14642.28115.29394.42567.44344l.0087.009c.14579.15078.2948.30355.44535.45718l.05689.05843.05549.05612q.19856.202.402.40672l.03409.03441q.21882.21977.44421.44294l.11886.11755q.18686.18455.37766.371l.09615.094q.23126.22528.46828.453l.0355.03436.08278.07883q.17027.163.3433.327l.142.13441q.194.18305.3914.36715l.07979.07466q.23562.21916.47617.43968c.042.03858.08464.07725.12689.11587q.18285.16707.36833.33464l.08468.07693.0389.0345q.48061.43254.97782.86735l.0024.00209q.49734.43424,1.012.86893l.04225.03627.05163.04288q.44056.37134.89287.74155l.0947.07752q.46939.383.95062.76335l.03586.02879.01872.01451q.446.35169.90212.69993l.05136.03944q.46191.35217.93358.69966l.02965.02221.01274.0092q.41.30164.82741.59871l.1068.07629q.4031.28621.81272.56747c.02534.01741.05009.03527.07543.05268l.0461.03083q.58411.39956,1.17987.78851Z" style="fill:#6baae6"/><path d="M7.9852,13.11551,6.47963,14.24337,19.02782,28.41332l1.6366-1.37819L8.69492,13.18905A.52076.52076,0,0,0,7.9852,13.11551Z" style="fill:#609df8"/><polygon points="20.288 31.508 21.919 31.343 21.705 49.706 20.071 51.084 20.288 31.508" style="fill:#3a6295"/><path d="M20.66442,27.03513l-1.6366,1.37819,12.00312-1.2135a.91194.91194,0,0,1,.80163.56188c.31105.633.85379,2.07261.85379,2.07261s.01156.243-.05035.31746,1.58915-1.31643,1.58915-1.31643.19313-.1727.03348-.56221-.64778-1.41051-.79768-1.90445c-.212-.44854-.49307-.57285-1.48874-.47676C30.35352,26.04814,20.66442,27.03513,20.66442,27.03513Z" style="fill:#6baae6"/><path d="M7.282,14.55078c-.30927-.365-.70758-.46393-.88959-.22083l-.71423.95374a.73509.73509,0,0,0,.17041.814l11.9,14.04468-.077,19.28107a.98092.98092,0,0,0,.47772.78448l1.57941.84961c.265.14252.48077.0224.48193-.26831l.077-19.281-1.25988-3.09489Z" style="fill:#9bbf4d"/><path d="M32.44592,30.27887c.2298-.02325.30865-.3042.17615-.62756l-.70355-1.71643c-.17932-.43738-.57672-.76648-.88757-.735l-12.00311,1.2135,1.25989,3.09485Z" style="fill:#eac941"/><path d="M17.71279,39.1195l-.04066,10.32809a.98493.98493,0,0,0,.48425.76376l1.5678.84363c.26278.1414.48578.03014.486-.243l.04172-10.32625Z" style="fill:#cc7831"/></g></g></svg>